<svg width="58" height="58" viewBox="0 0 58 58" fill="none" xmlns="http://www.w3.org/2000/svg">
<path fill-rule="evenodd" clip-rule="evenodd" d="M7.34286 53C6.98671 53 6.64515 52.8585 6.39331 52.6067C6.14148 52.3549 6 52.0133 6 51.6571V6H8.68571V50.3143H12.7143V30.1714C12.7143 29.8153 12.8558 29.4737 13.1076 29.2219C13.3594 28.97 13.701 28.8286 14.0571 28.8286H22.1143C22.4704 28.8286 22.812 28.97 23.0638 29.2219C23.3157 29.4737 23.4571 29.8153 23.4571 30.1714V50.3143H26.1429V24.8C26.1429 24.4439 26.2843 24.1023 26.5362 23.8505C26.788 23.5986 27.1296 23.4571 27.4857 23.4571H35.5429C35.899 23.4571 36.2406 23.5986 36.4924 23.8505C36.7442 24.1023 36.8857 24.4439 36.8857 24.8V50.3143H39.5714V14.0571C39.5714 13.701 39.7129 13.3594 39.9647 13.1076C40.2166 12.8558 40.5581 12.7143 40.9143 12.7143H48.9714C49.3276 12.7143 49.6691 12.8558 49.921 13.1076C50.1728 13.3594 50.3143 13.701 50.3143 14.0571V50.3143H53V53H7.34286ZM47.6286 50.3143V15.4H42.2571V50.3143H47.6286ZM34.2 50.3143H28.8286V26.1429H34.2V50.3143ZM20.7714 50.3143V31.5143H15.4V50.3143H20.7714Z" fill="#003B95"/>
</svg>
