<svg width="58" height="58" viewBox="0 0 58 58" fill="none" xmlns="http://www.w3.org/2000/svg">
<path d="M37.0257 5.09534C37.7852 4.92078 38.5802 4.98704 39.3003 5.2849C40.0204 5.58277 40.6299 6.09747 41.0442 6.75753L44.7738 12.7121C45.0745 13.1917 45.4799 13.5971 45.9595 13.8978L51.9141 17.6274C52.5755 18.0414 53.0915 18.6513 53.3901 19.3722C53.6887 20.0932 53.7551 20.8893 53.58 21.6497L52.0041 28.4936C51.877 29.0467 51.877 29.6214 52.0041 30.1745L53.58 37.0221C53.7534 37.7814 53.6861 38.5759 53.3876 39.2953C53.0891 40.0147 52.5741 40.6234 51.9141 41.0369L45.9595 44.7702C45.4799 45.071 45.0745 45.4763 44.7738 45.9559L41.0442 51.9105C40.6305 52.5713 40.0212 53.0867 39.301 53.3853C38.5808 53.6838 37.7856 53.7507 37.0257 53.5765L30.1781 52.0006C29.6262 51.874 29.0528 51.874 28.5009 52.0006L21.6532 53.5765C20.8934 53.7507 20.0981 53.6838 19.3779 53.3853C18.6578 53.0867 18.0485 52.5713 17.6347 51.9105L13.9051 45.9559C13.6033 45.4759 13.1967 45.0705 12.7157 44.7702L6.76485 41.0406C6.1041 40.6269 5.58864 40.0176 5.29008 39.2974C4.99153 38.5773 4.92471 37.782 5.09891 37.0221L6.67104 30.1745C6.79817 29.6214 6.79817 29.0467 6.67104 28.4936L5.09515 21.6497C4.92047 20.8889 4.98743 20.0925 5.28672 19.3715C5.586 18.6505 6.1027 18.0409 6.76485 17.6274L12.7157 13.8978C13.1967 13.5975 13.6033 13.1922 13.9051 12.7121L17.6347 6.75753C18.0488 6.09818 18.6577 5.58395 19.377 5.28613C20.0964 4.9883 20.8906 4.92163 21.6495 5.09534L28.5009 6.66748C29.0528 6.79403 29.6262 6.79403 30.1781 6.66748L37.0257 5.09534Z" stroke="#003B95" stroke-width="2.5"/>
<path d="M20.0132 31.3452L27.6487 38.658L38.6612 20.01" stroke="#003B95" stroke-width="2.5" stroke-linecap="round" stroke-linejoin="round"/>
</svg>
