<svg width="30" height="30" viewBox="0 0 30 30" fill="none" xmlns="http://www.w3.org/2000/svg">
<path d="M9.2075 26.25C9.03 26.25 8.88125 26.19 8.76125 26.07C8.64125 25.95 8.58167 25.8013 8.5825 25.6238C8.58333 25.4463 8.64292 25.2979 8.76125 25.1787C8.87958 25.0596 9.02833 25 9.2075 25H14.375V22.0913C14.375 21.9146 14.435 21.7662 14.555 21.6462C14.675 21.5262 14.8238 21.4662 15.0013 21.4663C15.1788 21.4663 15.3271 21.5262 15.4463 21.6462C15.5654 21.7662 15.625 21.9146 15.625 22.0913V25H20.8175C20.9942 25 21.1425 25.06 21.2625 25.18C21.3825 25.3 21.4425 25.4487 21.4425 25.6262C21.4425 25.8037 21.3825 25.9521 21.2625 26.0713C21.1425 26.1904 20.9942 26.25 20.8175 26.25H9.2075ZM10.2875 3.75H19.71C20.8208 3.75 21.7717 4.14542 22.5625 4.93625C23.3533 5.72708 23.7492 6.67792 23.75 7.78875V19.255C23.75 20.2308 23.405 21.0637 22.715 21.7537C22.025 22.4438 21.1921 22.7888 20.2163 22.7888H18.5337C18.3362 22.7888 18.1708 22.7221 18.0375 22.5887C17.9042 22.4546 17.8375 22.2887 17.8375 22.0913C17.8375 21.3113 17.5592 20.6437 17.0025 20.0887C16.4458 19.5329 15.7771 19.255 14.9963 19.255C14.2154 19.255 13.5479 19.5325 12.9938 20.0875C12.4396 20.6425 12.1629 21.3104 12.1637 22.0913C12.1637 22.2887 12.0971 22.4546 11.9637 22.5887C11.8296 22.7221 11.6638 22.7888 11.4663 22.7888H9.78375C8.80792 22.7888 7.975 22.4438 7.285 21.7537C6.595 21.0637 6.25 20.2304 6.25 19.2537V7.79C6.25 6.67917 6.64542 5.72833 7.43625 4.9375C8.22708 4.14667 9.17792 3.75083 10.2887 3.75M7.5 14.4237V19.255C7.5 19.8892 7.72208 20.4283 8.16625 20.8725C8.61042 21.3167 9.14958 21.5388 9.78375 21.5388H10.95C11.1225 20.5146 11.5833 19.6696 12.3325 19.0037C13.0825 18.3371 13.9717 18.0037 15 18.0037C16.0283 18.0037 16.9175 18.3371 17.6675 19.0037C18.4175 19.6704 18.8783 20.5154 19.05 21.5388H20.2163C20.8504 21.5388 21.3896 21.3167 21.8337 20.8725C22.2779 20.4283 22.5 19.8892 22.5 19.255V14.4237H7.5ZM7.5 8.46125V13.1737H22.5V8.46125H7.5ZM10.2875 5C9.62083 5 9.04 5.20542 8.545 5.61625C8.05 6.02708 7.73667 6.55917 7.605 7.2125H22.3975C22.2642 6.56 21.95 6.02833 21.455 5.6175C20.96 5.20667 20.3792 5.00083 19.7125 5H10.2875ZM10.2875 7.2125H22.3975H7.605H10.2875Z" fill="black"/>
</svg>
