<svg width="44" height="44" viewBox="0 0 44 44" fill="none" xmlns="http://www.w3.org/2000/svg">
<path d="M27.8918 22.7866C31.9397 22.7869 35.2209 26.0687 35.2209 30.1167C35.2209 31.7785 34.6673 33.3109 33.7385 34.5396L33.634 34.6782L33.757 34.8003L37.7483 38.7915C37.7612 38.8044 37.7715 38.8205 37.7785 38.8374C37.7855 38.8542 37.7893 38.872 37.7893 38.8901C37.7893 38.9084 37.7856 38.927 37.7785 38.9438L37.7483 38.9888L36.4221 40.3149C36.3974 40.3397 36.359 40.3549 36.3235 40.355C36.2858 40.355 36.2516 40.3427 36.2238 40.3149L32.1731 36.2642L32.0588 36.1489L31.9231 36.2388C30.7652 37.001 29.3827 37.4467 27.8918 37.4468C23.8438 37.4468 20.5619 34.1647 20.5617 30.1167C20.5617 26.0686 23.8437 22.7866 27.8918 22.7866ZM7.18674 3.45068H34.5647C35.2119 3.45068 35.7346 3.97339 35.7346 4.62061V21.0474C35.7346 21.1256 35.6693 21.1909 35.591 21.1909H33.1955C33.1174 21.1907 33.0529 21.1255 33.0529 21.0474V6.13232H8.69846V36.647H18.8225C18.9005 36.6471 18.9649 36.7115 18.9651 36.7896V39.1851C18.9651 39.2633 18.9007 39.3285 18.8225 39.3286H7.18674C6.53952 39.3286 6.01682 38.8059 6.01682 38.1587V4.62061C6.01682 3.97339 6.53952 3.45068 7.18674 3.45068ZM27.8918 25.1265C25.1339 25.1265 22.9006 27.3587 22.9006 30.1167C22.9007 32.8745 25.1339 35.1069 27.8918 35.1069C30.6495 35.1067 32.8819 32.8744 32.882 30.1167C32.882 27.3589 30.6496 25.1267 27.8918 25.1265ZM12.6623 17.311H20.5334C20.6116 17.311 20.6768 17.3755 20.677 17.4536V19.5073C20.677 19.5856 20.6117 19.6509 20.5334 19.6509H12.6623C12.5841 19.6509 12.5188 19.5856 12.5188 19.5073V17.4536C12.519 17.3755 12.5842 17.311 12.6623 17.311ZM12.6623 11.1509H29.0891C29.1672 11.1509 29.2324 11.2154 29.2326 11.2935V13.3472C29.2326 13.4254 29.1673 13.4907 29.0891 13.4907H12.6623C12.5841 13.4907 12.5188 13.4254 12.5188 13.3472V11.2935C12.519 11.2154 12.5842 11.1509 12.6623 11.1509Z" fill="white" stroke="#003B95" stroke-width="0.39823"/>
</svg>
