<svg width="44" height="44" viewBox="0 0 44 44" fill="none" xmlns="http://www.w3.org/2000/svg">
<path d="M5.47626 19.0154C5.47626 13.1777 5.47626 10.2589 6.16626 9.27681C6.85445 8.29656 9.59805 7.35647 15.0871 5.47812L16.133 5.12034C18.9935 4.14009 20.4228 3.65088 21.905 3.65088C23.3872 3.65088 24.8165 4.14009 27.677 5.12034L28.7229 5.47812C34.212 7.35647 36.9556 8.29656 37.6438 9.27681C38.3338 10.2589 38.3338 13.1796 38.3338 19.0154V21.8886C38.3338 32.1803 30.5958 37.1765 25.7402 39.2958C24.4241 39.8708 23.7669 40.1592 21.905 40.1592C20.0431 40.1592 19.3859 39.8708 18.0698 39.2958C13.2142 37.1747 5.47626 32.1821 5.47626 21.8886V19.0154Z" stroke="white" stroke-width="2.5"/>
<path d="M17.3415 22.6354L19.95 25.5561L26.4685 18.2544" stroke="white" stroke-width="2.5" stroke-linecap="round" stroke-linejoin="round"/>
</svg>
