<svg width="111" height="63" viewBox="0 0 111 63" fill="none" xmlns="http://www.w3.org/2000/svg">
<path fill-rule="evenodd" clip-rule="evenodd" d="M47.3642 61.6392L47.0741 38.43C48.4238 34.6374 50.7068 32.7852 54.3774 32.7852C58.048 32.7852 60.1544 34.3224 60.9491 38.0394V61.6392" fill="#80B2FF"/>
<path fill-rule="evenodd" clip-rule="evenodd" d="M60.9617 61.6392V38.0394C60.0283 34.4988 57.8714 32.7852 54.39 32.7852C50.9086 32.7852 48.6003 34.5114 47.3768 38.052V61.6392H32.4927V26.0946C32.4927 25.9056 32.6441 25.7418 32.8459 25.7418H75.5431C75.7323 25.7418 75.8962 25.893 75.8962 26.0946V61.6392H60.9743H60.9617ZM61.6555 61.614H75.1899V26.4348H33.1865V61.614H46.6831V37.989C46.6831 37.989 46.6831 37.9134 46.6957 37.8756C48.0075 34.0326 50.5933 32.0796 54.39 32.0796C58.1867 32.0796 60.6337 34.0326 61.6428 37.9008C61.6428 37.926 61.6428 37.9638 61.6428 37.989V61.614H61.6555ZM32.4801 27.279L30.8908 24.5574H77.3847L75.871 27.1908V28.5768L78.2928 24.381C78.3559 24.2676 78.3559 24.1416 78.2928 24.0282C78.2298 23.9148 78.1163 23.8518 77.9901 23.8518H30.2853C30.1592 23.8518 30.0457 23.9148 29.9826 24.0282C29.9195 24.1416 29.9195 24.2676 29.9826 24.381L32.4801 28.5768V27.279ZM71.3301 8.90822C71.3301 8.71922 71.1787 8.55542 70.9769 8.55542H37.412C37.2228 8.55542 37.0589 8.70662 37.0589 8.90822V16.0272H37.7526V9.24842H70.6238V16.0272H71.3175V8.90822H71.3301ZM34.7253 19.8198V16.7328H73.4114V19.8198H74.1051V16.38C74.1051 16.191 73.9538 16.0272 73.7519 16.0272H34.3722C34.183 16.0272 34.019 16.1784 34.019 16.38V19.8198M75.8836 20.1726C75.8836 19.9836 75.7323 19.8198 75.5305 19.8198H32.8333C32.6441 19.8198 32.4801 19.971 32.4801 20.1726V23.8644H33.1739V20.5254H75.1773V23.8644H75.871V20.1726H75.8836ZM63.4592 7.14422C63.4592 6.95522 63.3078 6.79142 63.106 6.79142H59.5868C59.1453 6.13622 58.7039 5.73302 58.2245 5.53142L57.8966 5.40542C57.4299 5.22902 57.1398 5.11562 56.774 4.77542C56.3829 4.41002 55.664 4.14542 54.5666 3.95642C54.5161 3.95642 54.4783 3.95642 54.4278 3.95642C52.8385 4.29662 52.4475 4.58642 52.2709 4.83842C52.0817 5.10302 51.4384 5.51882 50.8708 5.51882C50.3032 5.51882 49.8617 5.93462 49.4707 6.80402H45.283C45.0938 6.80402 44.9424 6.95522 44.9424 7.15682V8.58062H45.6361V7.50962H49.7103C49.8491 7.50962 49.9752 7.42142 50.0257 7.29542C50.3032 6.61502 50.6185 6.22442 50.8834 6.22442C51.6528 6.22442 52.5232 5.72042 52.8511 5.25422C52.8638 5.22902 53.0656 4.98962 54.5035 4.67462C55.6261 4.87622 56.0928 5.14082 56.2947 5.31722C56.7614 5.74562 57.1524 5.89682 57.6443 6.08582L57.9597 6.21182C58.3255 6.36302 58.7165 6.74102 59.0949 7.35842C59.158 7.45922 59.2715 7.52222 59.385 7.52222H62.7528V8.59322H63.4466V7.16942L63.4592 7.14422ZM57.1272 14.6412H50.896C50.732 14.6412 50.6059 14.5152 50.6059 14.3514V13.923H48.8652C48.7013 13.923 48.5751 13.797 48.5751 13.6332V11.4912C48.5751 11.3274 48.7013 11.2014 48.8652 11.2014H50.6059V10.8864C50.6059 10.7226 50.732 10.5966 50.896 10.5966H57.1272C57.2911 10.5966 57.4173 10.7226 57.4173 10.8864V11.2014H59.2967C59.4607 11.2014 59.5868 11.3274 59.5868 11.4912V13.6332C59.5868 13.797 59.4607 13.923 59.2967 13.923H57.4173V14.3514C57.4173 14.5152 57.2911 14.6412 57.1272 14.6412ZM51.1987 14.0616H56.8497V13.6332C56.8497 13.4694 56.9758 13.3434 57.1398 13.3434H59.0192V11.781H57.1398C56.9758 11.781 56.8497 11.655 56.8497 11.4912V11.1762H51.1987V11.4912C51.1987 11.655 51.0726 11.781 50.9086 11.781H49.168V13.3434H50.9086C51.0726 13.3434 51.1987 13.4694 51.1987 13.6332V14.0616ZM45.346 14.2506C44.5135 14.2506 43.845 13.5702 43.845 12.7512C43.845 11.9322 44.5261 11.2518 45.346 11.2518C46.1659 11.2518 46.847 11.9322 46.847 12.7512C46.847 13.5702 46.1659 14.2506 45.346 14.2506ZM45.346 11.9448C44.9045 11.9448 44.5388 12.3102 44.5388 12.7512C44.5388 13.1922 44.9045 13.5576 45.346 13.5576C45.7875 13.5576 46.1533 13.1922 46.1533 12.7512C46.1533 12.3102 45.7875 11.9448 45.346 11.9448ZM62.7276 14.2506C61.8951 14.2506 61.2266 13.5702 61.2266 12.7512C61.2266 11.9322 61.9077 11.2518 62.7276 11.2518C63.5475 11.2518 64.2286 11.9322 64.2286 12.7512C64.2286 13.5702 63.5475 14.2506 62.7276 14.2506ZM62.7276 11.9448C62.2861 11.9448 61.9203 12.3102 61.9203 12.7512C61.9203 13.1922 62.2861 13.5576 62.7276 13.5576C63.1691 13.5576 63.5349 13.1922 63.5349 12.7512C63.5349 12.3102 63.1691 11.9448 62.7276 11.9448ZM64.0773 29.5092C64.0773 29.3202 63.9259 29.1564 63.7241 29.1564H44.6649C44.4757 29.1564 44.3117 29.3076 44.3117 29.5092V61.614H45.0055V29.862H63.3709V61.614H64.0647V29.5092H64.0773ZM38.8626 34.3476C37.7148 34.3476 36.7814 33.4152 36.7814 32.2686C36.7814 31.122 37.7148 30.1896 38.8626 30.1896C40.0105 30.1896 40.9439 31.122 40.9439 32.2686C40.9439 33.4152 40.0105 34.3476 38.8626 34.3476ZM38.8626 30.8826C38.0932 30.8826 37.4751 31.5 37.4751 32.2686C37.4751 33.0372 38.0932 33.6546 38.8626 33.6546C39.632 33.6546 40.2501 33.0372 40.2501 32.2686C40.2501 31.5 39.632 30.8826 38.8626 30.8826ZM42.1043 36.3132C42.1043 36.1242 41.953 35.9604 41.7511 35.9604H35.9615C35.7723 35.9604 35.6083 36.1116 35.6083 36.3132V61.6014H36.302V36.6534H41.398V61.6014H42.0917V36.3132H42.1043ZM36.3147 57.4434H41.4106V56.7504H36.3147V57.4434ZM36.3147 46.6452H41.4106V45.9522H36.3147V46.6452ZM36.3147 39.8916H41.4106V39.1986H36.3147V39.8916ZM69.7913 34.3476C68.6434 34.3476 67.71 33.4152 67.71 32.2686C67.71 31.122 68.6434 30.1896 69.7913 30.1896C70.9391 30.1896 71.8725 31.122 71.8725 32.2686C71.8725 33.4152 70.9391 34.3476 69.7913 34.3476ZM69.7913 30.8826C69.0218 30.8826 68.4037 31.5 68.4037 32.2686C68.4037 33.0372 69.0218 33.6546 69.7913 33.6546C70.5607 33.6546 71.1787 33.0372 71.1787 32.2686C71.1787 31.5 70.5607 30.8826 69.7913 30.8826ZM73.033 36.3132C73.033 36.1242 72.8816 35.9604 72.6798 35.9604H66.8901C66.7009 35.9604 66.5369 36.1116 66.5369 36.3132V61.6014H67.2307V36.6534H72.3266V61.6014H73.0203V36.3132H73.033ZM67.2433 57.4434H72.3392V56.7504H67.2433V57.4434ZM67.2433 46.6452H72.3266V45.9522H67.2433V46.6452ZM67.2433 39.8916H72.3266V39.1986H67.2433V39.8916ZM98.8026 62.433C99.8369 62.3826 99.6099 61.6014 98.8026 61.6392H10.381C9.73772 61.6392 9.54852 62.433 10.381 62.433H98.8026Z" fill="#6F6F70"/>
</svg>
