<svg width="30" height="30" viewBox="0 0 30 30" fill="none" xmlns="http://www.w3.org/2000/svg">
<path d="M10.125 9.75C10.4234 9.75 10.7095 9.63147 10.9205 9.4205C11.1315 9.20952 11.25 8.92337 11.25 8.625C11.25 8.32663 11.1315 8.04048 10.9205 7.8295C10.7095 7.61853 10.4234 7.5 10.125 7.5C9.82663 7.5 9.54048 7.61853 9.3295 7.8295C9.11853 8.04048 9 8.32663 9 8.625C9 8.92337 9.11853 9.20952 9.3295 9.4205C9.54048 9.63147 9.82663 9.75 10.125 9.75ZM11.25 13.125C11.25 13.4234 11.1315 13.7095 10.9205 13.9205C10.7095 14.1315 10.4234 14.25 10.125 14.25C9.82663 14.25 9.54048 14.1315 9.3295 13.9205C9.11853 13.7095 9 13.4234 9 13.125C9 12.8266 9.11853 12.5405 9.3295 12.3295C9.54048 12.1185 9.82663 12 10.125 12C10.4234 12 10.7095 12.1185 10.9205 12.3295C11.1315 12.5405 11.25 12.8266 11.25 13.125ZM10.125 18.75C10.2727 18.75 10.419 18.7209 10.5555 18.6644C10.692 18.6078 10.816 18.525 10.9205 18.4205C11.025 18.316 11.1078 18.192 11.1644 18.0555C11.2209 17.919 11.25 17.7727 11.25 17.625C11.25 17.4773 11.2209 17.331 11.1644 17.1945C11.1078 17.058 11.025 16.934 10.9205 16.8295C10.816 16.725 10.692 16.6422 10.5555 16.5856C10.419 16.5291 10.2727 16.5 10.125 16.5C9.82663 16.5 9.54048 16.6185 9.3295 16.8295C9.11853 17.0405 9 17.3266 9 17.625C9 17.9234 9.11853 18.2095 9.3295 18.4205C9.54048 18.6315 9.82663 18.75 10.125 18.75ZM15.75 8.625C15.75 8.92337 15.6315 9.20952 15.4205 9.4205C15.2095 9.63147 14.9234 9.75 14.625 9.75C14.3266 9.75 14.0405 9.63147 13.8295 9.4205C13.6185 9.20952 13.5 8.92337 13.5 8.625C13.5 8.32663 13.6185 8.04048 13.8295 7.8295C14.0405 7.61853 14.3266 7.5 14.625 7.5C14.9234 7.5 15.2095 7.61853 15.4205 7.8295C15.6315 8.04048 15.75 8.32663 15.75 8.625ZM14.625 14.25C14.9234 14.25 15.2095 14.1315 15.4205 13.9205C15.6315 13.7095 15.75 13.4234 15.75 13.125C15.75 12.8266 15.6315 12.5405 15.4205 12.3295C15.2095 12.1185 14.9234 12 14.625 12C14.3266 12 14.0405 12.1185 13.8295 12.3295C13.6185 12.5405 13.5 12.8266 13.5 13.125C13.5 13.4234 13.6185 13.7095 13.8295 13.9205C14.0405 14.1315 14.3266 14.25 14.625 14.25ZM15.75 17.625C15.75 17.9234 15.6315 18.2095 15.4205 18.4205C15.2095 18.6315 14.9234 18.75 14.625 18.75C14.3266 18.75 14.0405 18.6315 13.8295 18.4205C13.6185 18.2095 13.5 17.9234 13.5 17.625C13.5 17.3266 13.6185 17.0405 13.8295 16.8295C14.0405 16.6185 14.3266 16.5 14.625 16.5C14.9234 16.5 15.2095 16.6185 15.4205 16.8295C15.6315 17.0405 15.75 17.3266 15.75 17.625ZM19.125 18.75C19.2727 18.75 19.419 18.7209 19.5555 18.6644C19.692 18.6078 19.816 18.525 19.9205 18.4205C20.025 18.316 20.1078 18.192 20.1644 18.0555C20.2209 17.919 20.25 17.7727 20.25 17.625C20.25 17.4773 20.2209 17.331 20.1644 17.1945C20.1078 17.058 20.025 16.934 19.9205 16.8295C19.816 16.725 19.692 16.6422 19.5555 16.5856C19.419 16.5291 19.2727 16.5 19.125 16.5C18.8266 16.5 18.5405 16.6185 18.3295 16.8295C18.1185 17.0405 18 17.3266 18 17.625C18 17.9234 18.1185 18.2095 18.3295 18.4205C18.5405 18.6315 18.8266 18.75 19.125 18.75ZM6.75 27C6.55109 27 6.36032 26.921 6.21967 26.7803C6.07902 26.6397 6 26.4489 6 26.25V5.25C6 4.65326 6.23705 4.08097 6.65901 3.65901C7.08097 3.23705 7.65326 3 8.25 3H17.25C17.8467 3 18.419 3.23705 18.841 3.65901C19.2629 4.08097 19.5 4.65326 19.5 5.25V12H21.75C22.3467 12 22.919 12.2371 23.341 12.659C23.7629 13.081 24 13.6533 24 14.25V26.25C24 26.4489 23.921 26.6397 23.7803 26.7803C23.6397 26.921 23.4489 27 23.25 27H6.75ZM7.5 5.25V25.5H10.5V21.75C10.5 21.5511 10.579 21.3603 10.7197 21.2197C10.8603 21.079 11.0511 21 11.25 21H18.75C18.9489 21 19.1397 21.079 19.2803 21.2197C19.421 21.3603 19.5 21.5511 19.5 21.75V25.5H22.5V14.25C22.5 14.0511 22.421 13.8603 22.2803 13.7197C22.1397 13.579 21.9489 13.5 21.75 13.5H18.75C18.5511 13.5 18.3603 13.421 18.2197 13.2803C18.079 13.1397 18 12.9489 18 12.75V5.25C18 5.05109 17.921 4.86032 17.7803 4.71967C17.6397 4.57902 17.4489 4.5 17.25 4.5H8.25C8.05109 4.5 7.86032 4.57902 7.71967 4.71967C7.57902 4.86032 7.5 5.05109 7.5 5.25ZM18 22.5H15.75V25.5H18V22.5ZM14.25 22.5H12V25.5H14.25V22.5Z" fill="black"/>
</svg>
