<svg width="480" height="165" viewBox="0 0 480 165" fill="none" xmlns="http://www.w3.org/2000/svg">
<g opacity="0.1" clip-path="url(#clip0_185_171)">
<path d="M191.79 68.0101C191.59 67.8101 191.28 67.8101 191.08 68.0101L189.32 69.7701L187.56 68.0101C187.36 67.8101 187.05 67.8101 186.85 68.0101C186.65 68.2101 186.65 68.5201 186.85 68.7201L188.61 70.4801L186.85 72.2401C186.65 72.4401 186.65 72.7501 186.85 72.9501C186.95 73.0501 187.08 73.1001 187.2 73.1001C187.33 73.1001 187.46 73.0501 187.55 72.9501L189.31 71.1901L191.07 72.9501C191.17 73.0501 191.3 73.1001 191.42 73.1001C191.55 73.1001 191.68 73.0501 191.77 72.9501C191.97 72.7501 191.97 72.4401 191.77 72.2401L190.01 70.4801L191.77 68.7201C191.99 68.5201 191.99 68.2101 191.79 68.0101Z" fill="white"/>
<path d="M12.95 37.55C13.05 37.65 13.18 37.7 13.3 37.7C13.43 37.7 13.56 37.65 13.65 37.55L15.41 35.79L17.17 37.55C17.27 37.65 17.4 37.7 17.52 37.7C17.65 37.7 17.78 37.65 17.87 37.55C18.07 37.35 18.07 37.04 17.87 36.84L16.11 35.08L17.87 33.32C18.07 33.12 18.07 32.81 17.87 32.61C17.67 32.41 17.36 32.41 17.16 32.61L15.4 34.37L13.64 32.61C13.44 32.41 13.13 32.41 12.93 32.61C12.73 32.81 12.73 33.12 12.93 33.32L14.69 35.08L12.93 36.84C12.75 37.04 12.75 37.35 12.95 37.55Z" fill="white"/>
<path d="M147.32 51.7099C147.32 53.9499 149.14 55.7699 151.38 55.7699C153.62 55.7699 155.44 53.9499 155.44 51.7099C155.44 49.4699 153.62 47.6499 151.38 47.6499C149.14 47.6499 147.32 49.4699 147.32 51.7099ZM154.44 51.7099C154.44 53.3999 153.07 54.7699 151.38 54.7699C149.69 54.7699 148.32 53.3999 148.32 51.7099C148.32 50.0199 149.69 48.6499 151.38 48.6499C153.07 48.6499 154.44 50.0199 154.44 51.7099Z" fill="white"/>
<path d="M66.26 45.4799C66.26 43.2399 64.44 41.4199 62.2 41.4199C59.96 41.4199 58.14 43.2399 58.14 45.4799C58.14 47.7199 59.96 49.5399 62.2 49.5399C64.44 49.5399 66.26 47.7099 66.26 45.4799ZM59.14 45.4799C59.14 43.7899 60.51 42.4199 62.2 42.4199C63.89 42.4199 65.26 43.7899 65.26 45.4799C65.26 47.1699 63.89 48.5399 62.2 48.5399C60.52 48.5399 59.14 47.1599 59.14 45.4799Z" fill="white"/>
<path d="M352.67 102.55C352.67 100.31 350.85 98.49 348.61 98.49C346.37 98.49 344.55 100.31 344.55 102.55C344.55 104.79 346.37 106.61 348.61 106.61C350.85 106.62 352.67 104.79 352.67 102.55ZM348.61 105.62C346.92 105.62 345.55 104.25 345.55 102.56C345.55 100.87 346.92 99.5 348.61 99.5C350.3 99.5 351.67 100.87 351.67 102.56C351.67 104.24 350.3 105.62 348.61 105.62Z" fill="white"/>
<path d="M336.83 56.51C333.28 56.51 329.98 58.48 328.28 61.57C327.09 61 325.79 60.7 324.47 60.7C319.97 60.7 316.19 64.13 315.72 68.58C313.12 69.46 311.34 71.93 311.34 74.7C311.34 78.26 314.24 81.16 317.8 81.16H320.47C320.75 81.16 320.97 80.94 320.97 80.66C320.97 80.38 320.75 80.16 320.47 80.16H317.8C314.79 80.16 312.34 77.71 312.34 74.7C312.34 72.26 313.98 70.1 316.33 69.44C316.53 69.38 316.68 69.2 316.69 68.99C316.96 64.9 320.38 61.7 324.47 61.7C325.79 61.7 327.1 62.04 328.25 62.68C328.37 62.75 328.51 62.76 328.64 62.72C328.77 62.68 328.88 62.58 328.94 62.46C330.39 59.45 333.49 57.51 336.83 57.51C341.66 57.51 345.59 61.44 345.59 66.27C345.59 67.09 345.47 67.9 345.25 68.69C345.21 68.83 345.23 68.97 345.31 69.09C345.39 69.21 345.51 69.29 345.65 69.32C348.27 69.78 350.17 72.04 350.17 74.7C350.17 77.71 347.72 80.16 344.71 80.16H329.92C329.64 80.16 329.42 80.38 329.42 80.66C329.42 80.94 329.64 81.16 329.92 81.16H344.71C348.27 81.16 351.17 78.26 351.17 74.7C351.17 71.74 349.17 69.19 346.35 68.45C346.51 67.74 346.6 67 346.6 66.27C346.59 60.89 342.21 56.51 336.83 56.51Z" fill="white"/>
<path d="M325.14 81.1599C325.42 81.1599 325.64 80.9399 325.64 80.6599C325.64 80.3799 325.42 80.1599 325.14 80.1599H324.39C324.11 80.1599 323.89 80.3799 323.89 80.6599C323.89 80.9399 324.11 81.1599 324.39 81.1599H325.14Z" fill="white"/>
<path d="M-28.37 72.2701C-28.17 72.2101 -28.02 72.0301 -28.01 71.8201C-27.74 67.7301 -24.32 64.5301 -20.23 64.5301C-18.91 64.5301 -17.6 64.8701 -16.45 65.5101C-16.33 65.5801 -16.19 65.5901 -16.06 65.5501C-15.93 65.5101 -15.82 65.4101 -15.76 65.2901C-14.31 62.2801 -11.21 60.3401 -7.87 60.3401C-3.04 60.3401 0.889999 64.2701 0.889999 69.1001C0.889999 69.9201 0.770004 70.7301 0.550003 71.5201C0.510002 71.6601 0.529999 71.8001 0.610001 71.9201C0.690002 72.0401 0.810005 72.1201 0.950005 72.1501C3.57 72.6101 5.47 74.8701 5.47 77.5301C5.47 80.5401 3.02 82.9901 0.0100021 82.9901H-14.78C-15.06 82.9901 -15.28 83.2101 -15.28 83.4901C-15.28 83.7701 -15.06 83.9901 -14.78 83.9901H0.0100021C3.57 83.9901 6.47 81.0901 6.47 77.5301C6.47 74.5701 4.47 72.0201 1.65 71.2801C1.81 70.5701 1.9 69.8301 1.9 69.1001C1.9 63.7201 -2.48 59.3401 -7.86 59.3401C-11.41 59.3401 -14.71 61.3101 -16.41 64.4001C-17.6 63.8301 -18.9 63.5301 -20.22 63.5301C-24.72 63.5301 -28.5 66.9601 -28.97 71.4101C-31.57 72.2901 -33.35 74.7601 -33.35 77.5301C-33.35 81.0901 -30.45 83.9901 -26.89 83.9901H-24.22C-23.94 83.9901 -23.72 83.7701 -23.72 83.4901C-23.72 83.2101 -23.94 82.9901 -24.22 82.9901H-26.89C-29.9 82.9901 -32.35 80.5401 -32.35 77.5301C-32.35 75.0901 -30.71 72.9301 -28.37 72.2701Z" fill="white"/>
<path d="M200.69 14.81C200.69 12.4 199.09 10.32 196.81 9.69C196.93 9.13 196.99 8.56 196.99 7.99C196.99 3.59 193.4 0 189 0C186.12 0 183.45 1.58 182.04 4.07C181.09 3.63 180.05 3.4 178.99 3.4C175.32 3.4 172.23 6.19 171.82 9.8C169.71 10.54 168.27 12.56 168.27 14.82C168.27 17.76 170.66 20.15 173.6 20.15H175.76C176.04 20.15 176.26 19.93 176.26 19.65C176.26 19.37 176.04 19.15 175.76 19.15H173.6C171.21 19.15 169.27 17.21 169.27 14.82C169.27 12.89 170.57 11.18 172.43 10.66C172.63 10.6 172.78 10.42 172.79 10.21C173 6.95 175.73 4.4 178.99 4.4C180.04 4.4 181.09 4.67 182.01 5.18C182.13 5.25 182.27 5.26 182.4 5.22C182.53 5.18 182.64 5.08 182.7 4.96C183.86 2.55 186.33 1 189 1C192.85 1 195.99 4.14 195.99 7.99C195.99 8.64 195.9 9.29 195.72 9.92C195.68 10.06 195.7 10.2 195.78 10.32C195.86 10.44 195.98 10.52 196.12 10.55C198.19 10.91 199.7 12.7 199.7 14.81C199.7 17.2 197.76 19.14 195.37 19.14H183.4C183.12 19.14 182.9 19.36 182.9 19.64C182.9 19.92 183.12 20.14 183.4 20.14H195.37C198.3 20.14 200.69 17.75 200.69 14.81Z" fill="white"/>
<path d="M178.92 19.1399C178.64 19.1399 178.42 19.3599 178.42 19.6399C178.42 19.9199 178.64 20.1399 178.92 20.1399H179.53C179.81 20.1399 180.03 19.9199 180.03 19.6399C180.03 19.3599 179.81 19.1399 179.53 19.1399H178.92Z" fill="white"/>
<path d="M277.62 56.75H271.56C269.6 56.75 268.01 58.34 268.01 60.3V62.11H269.01V60.3C269.01 58.89 270.15 57.75 271.56 57.75H277.62C281.3 57.75 284.29 54.76 284.29 51.08C284.29 47.4 281.3 44.41 277.62 44.41H273.57C272.16 44.41 271.02 43.27 271.02 41.86V39.08C271.02 37.12 269.43 35.53 267.47 35.53H249.49C246.73 35.53 244.48 37.78 244.48 40.54C244.48 43.31 246.73 45.55 249.49 45.55H255.51C256.92 45.55 258.06 46.69 258.06 48.1C258.06 49.51 256.92 50.65 255.51 50.65H240.07C238.11 50.65 236.52 52.24 236.52 54.2V54.97C236.52 56.93 238.11 58.52 240.07 58.52H258.36C259.77 58.52 260.91 59.66 260.91 61.07V62.11H261.91V61.07C261.91 59.11 260.32 57.52 258.36 57.52H240.07C238.66 57.52 237.52 56.38 237.52 54.97V54.2C237.52 52.79 238.66 51.65 240.07 51.65H255.51C257.47 51.65 259.06 50.06 259.06 48.1C259.06 46.14 257.47 44.55 255.51 44.55H249.49C247.28 44.55 245.48 42.75 245.48 40.54C245.48 38.33 247.28 36.53 249.49 36.53H267.47C268.88 36.53 270.02 37.67 270.02 39.08V41.86C270.02 43.82 271.61 45.41 273.57 45.41H277.62C280.75 45.41 283.29 47.96 283.29 51.08C283.3 54.2 280.75 56.75 277.62 56.75Z" fill="white"/>
<path d="M256.92 101.39H255.92V114.87H256.92V101.39Z" fill="white"/>
<path d="M272.91 101.39H271.91V114.87H272.91V101.39Z" fill="white"/>
<path d="M264.91 101.39H263.91V114.87H264.91V101.39Z" fill="white"/>
<path d="M264.42 79.6299H256.42V80.6299H264.42V79.6299Z" fill="white"/>
<path d="M272.41 84.96H267.52V85.96H272.41V84.96Z" fill="white"/>
<path d="M269.96 138.06H262.41V139.06H269.96V138.06Z" fill="white"/>
<path d="M276.41 144.28H271.3V145.28H276.41V144.28Z" fill="white"/>
<path d="M272.41 157.17H260.41V158.17H272.41V157.17Z" fill="white"/>
<path d="M269.97 150.73H265.82V151.73H269.97V150.73Z" fill="white"/>
<path d="M207.02 108.44H181.77V109.44H207.02V108.44Z" fill="white"/>
<path d="M218.72 108.44H212.5V109.44H218.72V108.44Z" fill="white"/>
<path d="M207.02 113.33H181.77V114.33H207.02V113.33Z" fill="white"/>
<path d="M218.72 113.33H212.5V114.33H218.72V113.33Z" fill="white"/>
<path d="M207.02 118.66H181.77V119.66H207.02V118.66Z" fill="white"/>
<path d="M218.72 118.66H212.5V119.66H218.72V118.66Z" fill="white"/>
<path d="M170.94 138.56H169.94V160.92H170.94V138.56Z" fill="white"/>
<path d="M177.75 138.56H176.75V160.92H177.75V138.56Z" fill="white"/>
<path d="M183.79 138.56H182.79V160.92H183.79V138.56Z" fill="white"/>
<path d="M337.88 164.9V152.45C344.18 151.8 349.11 146.46 349.11 140C349.11 136.01 347.22 132.28 344.02 129.92C345.08 128.4 345.64 126.63 345.64 124.76C345.64 119.77 341.58 115.71 336.59 115.71C335.16 115.71 333.74 116.06 332.48 116.71C330.94 111.92 326.45 108.45 321.15 108.45C314.59 108.45 309.25 113.79 309.25 120.35V139.88C309.25 146.06 313.99 151.16 320.03 151.72V164.91H321.03V151.77C321.07 151.77 321.11 151.78 321.15 151.78C323.84 151.78 326.31 150.87 328.3 149.37C330.59 151.4 333.5 152.53 336.59 152.53C336.69 152.53 336.78 152.52 336.88 152.52V164.92H337.88V164.9ZM332.79 117.66C333.95 117.04 335.27 116.71 336.6 116.71C341.04 116.71 344.65 120.32 344.65 124.76C344.65 126.58 344.06 128.3 342.93 129.73L342.6 130.15L343.04 130.45C346.22 132.6 348.12 136.17 348.12 140C348.12 145.92 343.64 150.8 337.89 151.44V149.55L343.99 141.26L343.19 140.67L337.9 147.87V136.63H336.9V142.08L333.07 138.4V120.34C333.07 119.35 332.94 118.39 332.71 117.48L332.79 117.66ZM321.03 150.77V144.25L327.13 135.96L326.32 135.37L321.03 142.57V131.33H320.03V136.78L316.04 132.95L315.35 133.67L320.03 138.17V150.72C314.54 150.16 310.25 145.51 310.25 139.88V120.35C310.25 114.34 315.14 109.45 321.15 109.45C327.16 109.45 332.05 114.34 332.05 120.35V139.88C332.05 145.89 327.16 150.78 321.15 150.78C321.11 150.77 321.07 150.77 321.03 150.77ZM336.59 151.52C333.8 151.52 331.17 150.53 329.08 148.72C331.51 146.54 333.05 143.39 333.05 139.87V139.78L336.88 143.46V151.5C336.78 151.5 336.69 151.52 336.59 151.52Z" fill="white"/>
<path d="M125.32 13.15C121.4 13.79 118.2 16.43 116.84 20.12C115.43 19.45 113.85 19.28 112.32 19.63C109.88 20.2 107.92 22.07 107.22 24.47C106.76 24.45 106.3 24.49 105.85 24.59C103.45 25.15 101.82 27.39 101.99 29.81C100.52 30.45 99.68 32.06 100.05 33.61L100.5 37.14L101.49 37.01L101.03 33.43C100.75 32.21 101.47 30.97 102.67 30.62L103.09 30.5L103.02 30.07C102.71 28.01 104.05 26.03 106.08 25.56C106.55 25.45 107.04 25.43 107.54 25.5L108 25.56L108.1 25.11C108.59 22.88 110.34 21.11 112.56 20.6C114.03 20.26 115.57 20.49 116.89 21.26L117.43 21.58L117.62 20.98C118.74 17.36 121.76 14.74 125.5 14.13C130.46 13.33 135.34 16.51 136.61 21.38C137.29 23.99 136.9 26.69 135.51 28.99C134.12 31.29 131.91 32.89 129.29 33.5C125.63 34.35 121.72 33 119.36 30.07L118.97 29.58L118.58 30.08C117.74 31.16 116.58 31.89 115.25 32.2C113.81 32.54 112.29 32.32 110.98 31.58L110.58 31.35L110.32 31.73C109.75 32.57 108.89 33.17 107.91 33.39C107.34 33.52 106.76 33.53 106.17 33.4L105.75 33.31L105.6 33.72C105.56 33.84 105.36 34.19 104.56 34.74C103.78 35.28 103.23 36.07 103.02 36.97L103.99 37.2C104.14 36.54 104.54 35.96 105.12 35.56C105.68 35.17 106.09 34.8 106.33 34.44C106.93 34.52 107.54 34.5 108.13 34.36C109.22 34.11 110.18 33.51 110.88 32.64C112.31 33.34 113.92 33.52 115.47 33.16C116.83 32.85 118.02 32.15 118.96 31.15C121.59 34.07 125.66 35.37 129.5 34.48C132.38 33.81 134.82 32.05 136.35 29.51C137.88 26.98 138.31 24 137.56 21.13C136.15 15.77 130.79 12.26 125.32 13.15Z" fill="white"/>
<path d="M60.58 100.72V101.35H59.33C56.38 101.35 53.99 103.75 53.99 106.69V155.11C53.99 158.06 56.39 160.45 59.33 160.45H71.07C74.02 160.45 76.41 158.05 76.41 155.11V106.69C76.41 103.74 74.01 101.35 71.07 101.35H69.82V100.72C69.82 98.3399 68.01 96.3999 65.7 96.1499V82.9599C65.7 76.5999 60.52 71.4199 54.16 71.4199H42.21C36.01 71.4199 30.95 76.3399 30.69 82.4799C27.86 82.7199 25.63 85.0999 25.63 87.9899V88.8699H24C20.46 88.8699 17.59 91.7499 17.59 95.2799V135.14C16.73 133.09 15.34 131.27 13.5 129.92C14.56 128.4 15.12 126.63 15.12 124.76C15.12 119.77 11.06 115.71 6.07 115.71C4.64 115.71 3.22 116.06 1.96 116.71C0.419998 111.92 -4.07 108.45 -9.37 108.45C-15.93 108.45 -21.27 113.79 -21.27 120.35V139.88C-21.27 146.06 -16.53 151.16 -10.49 151.72V164.91H-9.49V151.77C-9.45 151.77 -9.41 151.78 -9.37 151.78C-6.68 151.78 -4.21 150.87 -2.22 149.37C0.0699997 151.4 2.98 152.53 6.07 152.53C6.17 152.53 6.26 152.52 6.36 152.52V164.92H7.36V152.47C11.97 152 15.84 149.01 17.59 144.92V154.45C17.59 157.99 20.47 160.86 24 160.86H38.34C41.88 160.86 44.75 157.98 44.75 154.45V95.2799C44.75 91.7399 41.87 88.8699 38.34 88.8699H36.7V87.9899C36.7 85.1199 34.5 82.7499 31.69 82.4799C31.94 76.8899 36.55 72.4099 42.21 72.4099H54.17C59.98 72.4099 64.71 77.1399 64.71 82.9499V96.1399C62.39 96.3999 60.58 98.3399 60.58 100.72ZM18.58 97.8799H43.75V102.29H18.58V97.8799ZM-9.49 150.77V144.25L-3.39 135.96L-4.2 135.37L-9.49 142.57V131.33H-10.49V136.78L-14.48 132.95L-15.17 133.67L-10.49 138.17V150.72C-15.98 150.16 -20.27 145.51 -20.27 139.88V120.35C-20.27 114.34 -15.38 109.45 -9.37 109.45C-3.36 109.45 1.53 114.34 1.53 120.35V139.88C1.53 145.89 -3.36 150.78 -9.37 150.78C-9.42 150.77 -9.45 150.77 -9.49 150.77ZM6.07 151.52C3.28 151.52 0.650002 150.53 -1.44 148.72C0.990002 146.54 2.53 143.39 2.53 139.87V139.78L6.36 143.46V151.5C6.26 151.5 6.16 151.52 6.07 151.52ZM7.36 151.44V149.55L13.46 141.26L12.66 140.67L7.37 147.87V136.63H6.37V142.08L2.54 138.4V120.34C2.54 119.35 2.41 118.39 2.18 117.48L2.28 117.67C3.44 117.05 4.76 116.72 6.09 116.72C10.53 116.72 14.14 120.33 14.14 124.77C14.14 126.59 13.55 128.31 12.42 129.74L12.09 130.16L12.53 130.46C15.71 132.61 17.61 136.18 17.61 140.01C17.58 145.91 13.1 150.79 7.36 151.44ZM18.58 103.29H43.75V147.06H18.58V103.29ZM18.58 148.06H43.75V152.47H18.58V148.06ZM38.34 159.84H24C21.01 159.84 18.59 157.41 18.59 154.43V153.48H43.76V154.43C43.75 157.41 41.32 159.84 38.34 159.84ZM38.34 89.8699C41.33 89.8699 43.75 92.2999 43.75 95.2799V96.8799H18.58V95.2799C18.58 92.2899 21.01 89.8699 23.99 89.8699H25.63H36.7H38.34ZM35.7 87.9899V88.8699H26.63V87.9899C26.63 85.4899 28.66 83.4599 31.16 83.4599C33.67 83.4599 35.7 85.4899 35.7 87.9899ZM54.99 148.99V113.33H75.42V148.99H54.99ZM75.42 149.99V153.42H54.99V149.99H75.42ZM54.99 112.33V108.9H75.42V112.33H54.99ZM71.08 159.45H59.34C56.95 159.45 55 157.5 55 155.11V154.42H75.43V155.11C75.42 157.5 73.47 159.45 71.08 159.45ZM71.08 102.34C73.47 102.34 75.42 104.29 75.42 106.68V107.9H54.99V106.68C54.99 104.29 56.94 102.34 59.33 102.34H60.58H69.82H71.08ZM68.83 100.72V101.35H61.59V100.72C61.59 98.7199 63.21 97.0999 65.21 97.0999C67.2 97.0999 68.83 98.7199 68.83 100.72Z" fill="white"/>
<path d="M112.36 89.43L113.35 89.32L107.87 41.75C107.72 40.47 106.64 39.5 105.34 39.5H98.56C97.23 39.5 96.14 40.5 96.03 41.82L88.61 127.39L89.61 127.48L94.32 73.1H110.47L112.36 89.43ZM97.03 41.9C97.1 41.1 97.76 40.49 98.57 40.49H105.35C106.14 40.49 106.79 41.08 106.88 41.86L107.16 44.27H96.83L97.03 41.9ZM96.74 45.27H107.27L109.96 68.64H94.71L96.74 45.27ZM94.42 72.09L94.63 69.63H110.08L110.36 72.09H94.42Z" fill="white"/>
<path d="M98.93 86.1699H97.93V127.44H98.93V86.1699Z" fill="white"/>
<path d="M106.14 86.1699H105.14V127.44H106.14V86.1699Z" fill="white"/>
<path d="M158.22 124.03H137.41V125.03H158.22V124.03Z" fill="white"/>
<path d="M158.22 119.29H137.41V120.29H158.22V119.29Z" fill="white"/>
<path d="M158.22 114.56H137.41V115.56H158.22V114.56Z" fill="white"/>
<path d="M158.22 109.82H137.41V110.82H158.22V109.82Z" fill="white"/>
<path d="M158.22 105.08H137.41V106.08H158.22V105.08Z" fill="white"/>
<path d="M158.22 100.35H137.41V101.35H158.22V100.35Z" fill="white"/>
<path d="M158.22 95.6101H137.41V96.6101H158.22V95.6101Z" fill="white"/>
<path d="M158.22 90.8701H137.41V91.8701H158.22V90.8701Z" fill="white"/>
<path d="M134.18 124.03H131.18V125.03H134.18V124.03Z" fill="white"/>
<path d="M134.18 119.29H131.18V120.29H134.18V119.29Z" fill="white"/>
<path d="M134.18 114.56H131.18V115.56H134.18V114.56Z" fill="white"/>
<path d="M134.18 109.82H131.18V110.82H134.18V109.82Z" fill="white"/>
<path d="M134.18 105.08H131.18V106.08H134.18V105.08Z" fill="white"/>
<path d="M134.18 100.35H131.18V101.35H134.18V100.35Z" fill="white"/>
<path d="M134.18 95.6101H131.18V96.6101H134.18V95.6101Z" fill="white"/>
<path d="M134.18 90.8701H131.18V91.8701H134.18V90.8701Z" fill="white"/>
<path d="M88.59 159.48H94.05V141.95H88.59V159.48ZM89.59 142.95H93.05V158.48H89.59V142.95Z" fill="white"/>
<path d="M96.71 159.48H102.17V141.95H96.71V159.48ZM97.71 142.95H101.17V158.48H97.71V142.95Z" fill="white"/>
<path d="M104.83 159.48H110.29V141.95H104.83V159.48ZM105.83 142.95H109.29V158.48H105.83V142.95Z" fill="white"/>
<path d="M112.96 159.48H118.42V141.95H112.96V159.48ZM113.96 142.95H117.42V158.48H113.96V142.95Z" fill="white"/>
<path d="M135.59 138.29H88.32V139.29H135.59V138.29Z" fill="white"/>
<path d="M135.59 134.79H88.32V135.79H135.59V134.79Z" fill="white"/>
<path d="M472.09 127.41H457.28V74.2899H446.87V63.3499H442.47V57.2099H435.83V40.8999H434.83V57.2199H428.19V63.3599H422.12V72.6999H411.64V49.1999H400.73L386.15 53.3299V105.52H369.27V142.89H356.52V164.91H317.1L317.89 164.88C317.7 159.96 313.97 156.03 309.13 155.53C309.13 155.43 309.14 155.33 309.14 155.23C309.14 150.54 305.32 146.72 300.63 146.72C295.94 146.72 292.12 150.54 292.12 155.23C292.12 155.37 292.12 155.5 292.13 155.65C291.54 155.53 290.93 155.48 290.33 155.48C286.52 155.48 283.24 157.78 281.78 161.08L277.83 67.2299L277.81 66.7499H253.28L248.98 123.85H228.7V90.8199H164.44V80.9599H131.33L112.36 94.1199V128.34H113.36V94.6399L131.65 81.9599H163.44V164.92H141.3V130.4H84.41V164.92H68.2V161.14H67.2V164.92H64.09V161.14H63.09V164.92H33.72V161.14H32.72V164.92H29.61V161.14H28.61V164.92H-13.42L-12.63 164.89C-12.82 159.97 -16.55 156.04 -21.39 155.54C-21.39 155.44 -21.38 155.34 -21.38 155.24C-21.38 150.55 -25.2 146.73 -29.89 146.73C-34.58 146.73 -38.4 150.55 -38.4 155.24C-38.4 155.38 -38.4 155.51 -38.39 155.66C-38.98 155.54 -39.59 155.49 -40.19 155.49C-45.35 155.49 -49.55 159.69 -49.55 164.91L-48.55 164.85C-48.55 160.24 -44.8 156.49 -40.19 156.49C-39.44 156.49 -38.69 156.59 -37.96 156.79L-37.23 156.99L-37.33 156.24C-37.38 155.86 -37.4 155.54 -37.4 155.24C-37.4 151.1 -34.03 147.73 -29.89 147.73C-25.75 147.73 -22.38 151.1 -22.38 155.24C-22.38 155.48 -22.39 155.72 -22.42 155.95L-22.47 156.47L-21.95 156.5C-17.39 156.74 -13.82 160.36 -13.63 164.92H-55V165.92H28.62V166.09H29.62V165.92H32.73V166.09H33.73V165.92H63.1V166.09H64.1V165.92H67.21V166.09H68.21V165.92H121.68V166.09H122.68V165.92H134.6V166.09H135.6V165.92H480.02V164.92H472.1V127.41H472.09ZM471.09 164.91H466.82V135.11H465.82V164.91H461.25V135.11H460.25V164.91H455.68V135.11H454.68V164.91H449.81V144.49H442.47V130.31V128.41H471.1V164.91H471.09ZM448.81 145.49V164.91H429.19V145.49H448.81ZM456.28 80.2999H447.17V81.2999H456.28V85.3499H447.17V86.3499H456.28V90.3999H447.17V91.3999H456.28V95.4499H447.17V96.4499H456.28V100.5H447.17V101.5H456.28V105.55H447.17V106.55H456.28V110.6H447.17V111.6H456.28V115.65H447.17V116.65H456.28V120.7H447.17V121.7H456.28V127.42H442.47V75.2899H456.28V80.2999ZM429.19 58.2099H434.83V62.5099H435.83V58.2099H441.47V63.3499H429.19V58.2099ZM423.11 73.6899V64.3499H445.87V74.2899H441.47V127.41V130.31V144.49H428.19V164.91H418.38V124.07H411.64V90.5399V73.6899H423.11ZM417.38 125.08V164.92H406.04V142.9H387.16V125.08H417.38ZM370.26 106.52H387.14V54.0899L400.79 50.2099H410.63V58.5499H394.85V59.5499H410.63V64.8599H394.85V65.8599H410.63V71.1699H394.85V72.1699H410.63V72.6899V77.4799H394.85V78.4799H410.63V83.7899H394.85V84.7899H410.63V90.0999H394.85V91.0999H410.63V96.4099H394.85V97.4099H410.63V102.72H394.85V103.72H410.63V109.03H394.85V110.03H410.63V115.34H394.85V116.34H410.63V124.06H386.14V142.88H370.26V106.52ZM357.52 143.89H405.03V164.91H357.52V143.89ZM281.96 164.84C281.96 160.23 285.71 156.48 290.32 156.48C291.07 156.48 291.82 156.58 292.55 156.78L293.28 156.98L293.18 156.23C293.13 155.85 293.11 155.53 293.11 155.23C293.11 151.09 296.48 147.72 300.62 147.72C304.76 147.72 308.13 151.09 308.13 155.23C308.13 155.47 308.12 155.71 308.09 155.94L308.04 156.46L308.56 156.49C313.12 156.73 316.69 160.35 316.88 164.91H281.93V164.84H281.96ZM245.44 164.91H234.74V139.06H245.44V164.91ZM233.74 138.06V164.91H226.7V138.06H214V164.91H209.08V138.06H196.38V164.91H189.83V133.5H255.92V164.91H246.44V138.06H233.74ZM225.69 164.91H214.99V139.06H225.69V164.91ZM208.07 164.91H197.37V139.06H208.07V164.91ZM182.27 132.51V124.85H251.92H265.03V132.51H182.27ZM256.92 133.51H266.03V124.85H279.25L280.94 164.92H256.92V133.51ZM278.03 95.9999H252.07L252.39 91.8199H277.86L278.03 95.9999ZM278.07 96.9999L278.98 118.66H250.36L251.99 96.9999H278.07ZM277.81 90.8199H252.46L253.71 74.2199H277.11L277.81 90.8199ZM265.92 73.2199V67.7499H270.8V73.2199H265.92ZM264.92 73.2199H260.03V67.7499H264.92V73.2199ZM277.07 73.2199H271.8V67.7499H276.84L277.07 73.2199ZM259.03 67.7499V73.2199H253.79L254.2 67.7499H259.03ZM250.28 119.66H279.02L279.2 123.84H266.02H251.91H249.96L250.28 119.66ZM227.7 91.8199V123.85H181.27V133.51H188.82V164.92H164.71V101.89H227.38V100.89H164.71V91.8199H227.7ZM122.67 164.91V142.94H128.13V164.91H122.67ZM129.13 164.91V142.94H134.59V164.91H129.13ZM121.67 141.95V164.92H85.41V131.4H140.3V164.92H135.59V141.95H121.67Z" fill="white"/>
<path d="M370.05 150.5H362.69V151.5H370.05V150.5Z" fill="white"/>
<path d="M399.86 150.5H392.5V151.5H399.86V150.5Z" fill="white"/>
<path d="M388.67 150.5H374.67V151.5H388.67V150.5Z" fill="white"/>
<path d="M370.05 156.21H362.69V157.21H370.05V156.21Z" fill="white"/>
<path d="M399.86 156.21H392.5V157.21H399.86V156.21Z" fill="white"/>
<path d="M388.67 156.21H374.67V157.21H388.67V156.21Z" fill="white"/>
<path d="M370.05 161.61H362.69V162.61H370.05V161.61Z" fill="white"/>
<path d="M399.86 161.61H392.5V162.61H399.86V161.61Z" fill="white"/>
<path d="M388.67 161.61H374.67V162.61H388.67V161.61Z" fill="white"/>
<path d="M376.44 111.9H375.44V136.32H376.44V111.9Z" fill="white"/>
<path d="M381.77 111.9H380.77V136.32H381.77V111.9Z" fill="white"/>
<path d="M418.47 79.8401H417.47V119.1H418.47V79.8401Z" fill="white"/>
<path d="M424.26 79.8401H423.26V139.94H424.26V79.8401Z" fill="white"/>
<path d="M430.05 79.8401H429.05V139.94H430.05V79.8401Z" fill="white"/>
<path d="M435.84 79.8401H434.84V139.94H435.84V79.8401Z" fill="white"/>
<path d="M444.1 150.5H433.47V151.5H444.1V150.5Z" fill="white"/>
<path d="M444.1 155.18H433.47V156.18H444.1V155.18Z" fill="white"/>
<path d="M444.1 159.91H433.47V160.91H444.1V159.91Z" fill="white"/>
<path d="M77.29 13.1799H55.13V14.1799H77.29V13.1799Z" fill="white"/>
<path d="M89.11 13.1799H83.94V14.1799H89.11V13.1799Z" fill="white"/>
</g>
<defs>
<clipPath id="clip0_185_171">
<rect width="535.01" height="166.09" fill="white" transform="translate(-55)"/>
</clipPath>
</defs>
</svg>
