<svg width="45" height="44" viewBox="0 0 45 44" fill="none" xmlns="http://www.w3.org/2000/svg">
<path d="M35.9062 35H9.09375C7.38188 35 6 33.6042 6 31.875V13.125C6 11.3958 7.38188 10 9.09375 10H35.9062C37.6181 10 39 11.3958 39 13.125V31.875C39 33.6042 37.6181 35 35.9062 35ZM9.09375 12.0833C8.51625 12.0833 8.0625 12.5417 8.0625 13.125V31.875C8.0625 32.4583 8.51625 32.9167 9.09375 32.9167H35.9062C36.4838 32.9167 36.9375 32.4583 36.9375 31.875V13.125C36.9375 12.5417 36.4838 12.0833 35.9062 12.0833H9.09375Z" fill="#003B95"/>
<path d="M22.5 26.9792C21.0915 26.9792 19.8038 26.398 18.838 25.3394L8.27458 13.757C7.89229 13.3419 7.91241 12.6776 8.31482 12.2833C8.71724 11.8889 9.36111 11.9096 9.7434 12.3248L20.3068 23.9072C21.4537 25.1734 23.5463 25.1734 24.6932 23.9072L35.2566 12.3455C35.6389 11.9304 36.2828 11.9096 36.6852 12.304C37.0876 12.6984 37.1077 13.3626 36.7254 13.7778L26.162 25.3602C25.1962 26.4188 23.9085 27 22.5 27V26.9792Z" fill="#003B95"/>
</svg>
