<svg width="45" height="44" viewBox="0 0 45 44" fill="none" xmlns="http://www.w3.org/2000/svg">
<path fill-rule="evenodd" clip-rule="evenodd" d="M11.2051 18.0694C14.4882 25.2165 20.3214 30.8804 27.5621 33.9515L27.5841 33.9607L28.9848 34.584C29.85 34.9698 30.8215 35.0461 31.7363 34.8001C32.6511 34.554 33.4533 34.0006 34.0081 33.2329L36.3438 30.0007C36.4125 29.9055 36.442 29.7876 36.4263 29.6713C36.4106 29.555 36.3509 29.4491 36.2595 29.3755L32.1821 26.0847C32.134 26.0459 32.0785 26.0172 32.0191 26.0004C31.9596 25.9836 31.8973 25.979 31.836 25.9868C31.7747 25.9947 31.7156 26.0149 31.6623 26.0462C31.609 26.0775 31.5625 26.1193 31.5258 26.169L29.9381 28.3104C29.7511 28.563 29.4831 28.7439 29.1789 28.823C28.8747 28.902 28.5525 28.8745 28.2661 28.7449C22.8414 26.2874 18.4953 21.9413 16.0378 16.5165C15.9082 16.2301 15.8806 15.908 15.9597 15.6038C16.0388 15.2995 16.2197 15.0316 16.4723 14.8445L18.6118 13.255C18.6615 13.2183 18.7033 13.1719 18.7346 13.1186C18.7659 13.0653 18.7861 13.0062 18.794 12.9448C18.8019 12.8835 18.7973 12.8213 18.7804 12.7618C18.7636 12.7023 18.7349 12.6468 18.6961 12.5987L15.4071 8.52136C15.3335 8.42993 15.2277 8.37022 15.1114 8.35453C14.9951 8.33884 14.8772 8.36837 14.782 8.43703L11.5315 10.7837C10.7585 11.3412 10.2025 12.1492 9.95785 13.0703C9.71321 13.9914 9.79505 14.9688 10.1895 15.8364L11.2051 18.0694ZM26.4768 36.4779C18.6102 33.1375 12.2732 26.9817 8.70631 19.2152L8.70264 19.2115L7.68697 16.9749C7.02957 15.5292 6.89297 13.9004 7.30037 12.3654C7.70776 10.8304 8.63403 9.48381 9.9218 8.55436L13.1723 6.20769C13.838 5.72721 14.6626 5.52024 15.4764 5.62937C16.2901 5.73851 17.031 6.15544 17.5466 6.79436L20.8375 10.8735C21.109 11.2101 21.3098 11.5981 21.4276 12.0141C21.5454 12.4302 21.5779 12.8659 21.5231 13.2948C21.4683 13.7238 21.3274 14.1373 21.1087 14.5104C20.8901 14.8835 20.5983 15.2086 20.2508 15.466L19.0225 16.3754C21.0992 20.402 24.3788 23.6816 28.4055 25.7584L29.3166 24.53C29.5741 24.1828 29.8991 23.8913 30.272 23.6728C30.645 23.4543 31.0582 23.3134 31.487 23.2587C31.9157 23.2039 32.3511 23.2363 32.767 23.3539C33.183 23.4716 33.5708 23.6721 33.9073 23.9434L37.9865 27.2342C38.6259 27.7499 39.0432 28.4911 39.1523 29.3053C39.2615 30.1195 39.0542 30.9445 38.5731 31.6104L36.2375 34.8444C35.3129 36.1239 33.9762 37.0463 32.4519 37.4566C30.9275 37.8669 29.3084 37.7401 27.8665 37.0975L26.4768 36.4779Z" fill="url(#paint0_linear_724_3826)"/>
<path fill-rule="evenodd" clip-rule="evenodd" d="M11.2051 18.0694C14.4882 25.2165 20.3214 30.8804 27.5621 33.9515L27.5841 33.9607L28.9848 34.584C29.85 34.9698 30.8215 35.0461 31.7363 34.8001C32.6511 34.554 33.4533 34.0006 34.0081 33.2329L36.3438 30.0007C36.4125 29.9055 36.442 29.7876 36.4263 29.6713C36.4106 29.555 36.3509 29.4491 36.2595 29.3755L32.1821 26.0847C32.134 26.0459 32.0785 26.0172 32.0191 26.0004C31.9596 25.9836 31.8973 25.979 31.836 25.9868C31.7747 25.9947 31.7156 26.0149 31.6623 26.0462C31.609 26.0775 31.5625 26.1193 31.5258 26.169L29.9381 28.3104C29.7511 28.563 29.4831 28.7439 29.1789 28.823C28.8747 28.902 28.5525 28.8745 28.2661 28.7449C22.8414 26.2874 18.4953 21.9413 16.0378 16.5165C15.9082 16.2301 15.8806 15.908 15.9597 15.6038C16.0388 15.2995 16.2197 15.0316 16.4723 14.8445L18.6118 13.255C18.6615 13.2183 18.7033 13.1719 18.7346 13.1186C18.7659 13.0653 18.7861 13.0062 18.794 12.9448C18.8019 12.8835 18.7973 12.8213 18.7804 12.7618C18.7636 12.7023 18.7349 12.6468 18.6961 12.5987L15.4071 8.52136C15.3335 8.42993 15.2277 8.37022 15.1114 8.35453C14.9951 8.33884 14.8772 8.36837 14.782 8.43703L11.5315 10.7837C10.7585 11.3412 10.2025 12.1492 9.95785 13.0703C9.71321 13.9914 9.79505 14.9688 10.1895 15.8364L11.2051 18.0694ZM26.4768 36.4779C18.6102 33.1375 12.2732 26.9817 8.70631 19.2152L8.70264 19.2115L7.68697 16.9749C7.02957 15.5292 6.89297 13.9004 7.30037 12.3654C7.70776 10.8304 8.63403 9.48381 9.9218 8.55436L13.1723 6.20769C13.838 5.72721 14.6626 5.52024 15.4764 5.62937C16.2901 5.73851 17.031 6.15544 17.5466 6.79436L20.8375 10.8735C21.109 11.2101 21.3098 11.5981 21.4276 12.0141C21.5454 12.4302 21.5779 12.8659 21.5231 13.2948C21.4683 13.7238 21.3274 14.1373 21.1087 14.5104C20.8901 14.8835 20.5983 15.2086 20.2508 15.466L19.0225 16.3754C21.0992 20.402 24.3788 23.6816 28.4055 25.7584L29.3166 24.53C29.5741 24.1828 29.8991 23.8913 30.272 23.6728C30.645 23.4543 31.0582 23.3134 31.487 23.2587C31.9157 23.2039 32.3511 23.2363 32.767 23.3539C33.183 23.4716 33.5708 23.6721 33.9073 23.9434L37.9865 27.2342C38.6259 27.7499 39.0432 28.4911 39.1523 29.3053C39.2615 30.1195 39.0542 30.9445 38.5731 31.6104L36.2375 34.8444C35.3129 36.1239 33.9762 37.0463 32.4519 37.4566C30.9275 37.8669 29.3084 37.7401 27.8665 37.0975L26.4768 36.4779Z" fill="black" fill-opacity="0.2"/>
<defs>
<linearGradient id="paint0_linear_724_3826" x1="39.1808" y1="21.6469" x2="7.07031" y2="21.6469" gradientUnits="userSpaceOnUse">
<stop stop-color="#006CE4"/>
<stop offset="1" stop-color="#3691F6"/>
</linearGradient>
</defs>
</svg>
