<svg width="36" height="35" viewBox="0 0 36 35" fill="none" xmlns="http://www.w3.org/2000/svg">
<path d="M6.0096 17.4155C4.6271 15.0063 3.95918 13.0376 3.55668 11.0426C2.96168 8.0909 4.32376 5.20778 6.57981 3.36736C7.53356 2.59007 8.62731 2.85694 9.19168 3.86757L10.4648 6.15278C11.474 7.96403 11.9786 8.86819 11.8794 9.82778C11.7788 10.7888 11.0977 11.5705 9.7371 13.1338L6.0096 17.4155ZM6.0096 17.4155C8.80814 22.2951 13.1992 26.6905 18.0846 29.4905M18.0846 29.4905C20.4952 30.873 22.4625 31.5409 24.4575 31.9434C27.4092 32.5384 30.2923 31.1763 32.1313 28.9203C32.91 27.9665 32.6431 26.8728 31.6325 26.3084L29.3473 25.0353C27.5361 24.0261 26.6319 23.5215 25.6723 23.6207C24.7113 23.7213 23.9296 24.4024 22.3663 25.763L18.0846 29.4905ZM29.6142 15.874C29.6142 11.9132 29.7133 10.8355 27.3086 9.12486C26.1258 8.2834 23.7473 7.72924 20.5346 8.02819M23.0736 4.35028L19.7106 7.4784C19.643 7.54542 19.5893 7.62511 19.5524 7.71291C19.5156 7.8007 19.4965 7.8949 19.4961 7.9901C19.4957 8.08531 19.514 8.17966 19.5501 8.26777C19.5861 8.35588 19.6392 8.43602 19.7063 8.50361L23.0736 11.6828" stroke="#80B3FF" stroke-width="2.1875" stroke-linecap="round" stroke-linejoin="round"/>
</svg>
