<svg width="50" height="50" viewBox="0 0 50 50" fill="none" xmlns="http://www.w3.org/2000/svg">
<path d="M37.5 37.5C38.3288 37.5 39.1237 37.1708 39.7097 36.5847C40.2958 35.9987 40.625 35.2038 40.625 34.375V26.7437C40.625 25.9149 40.2958 25.1201 39.7097 24.534C39.1237 23.948 38.3288 23.6188 37.5 23.6188H33.1625C33.1625 22.5208 33.2271 21.4229 33.3563 20.325C33.55 19.1625 33.8729 18.1292 34.325 17.225C34.7771 16.3208 35.3594 15.6094 36.0719 15.0906C36.7802 14.5094 37.6844 14.2188 38.7844 14.2188V9.375C36.9761 9.375 35.3927 9.7625 34.0344 10.5375C32.6855 11.3027 31.5265 12.3624 30.6438 13.6375C29.7551 15.0411 29.1007 16.58 28.7063 18.1938C28.3075 19.9742 28.1125 21.7942 28.125 23.6188V34.375C28.125 35.2038 28.4543 35.9987 29.0403 36.5847C29.6264 37.1708 30.4212 37.5 31.25 37.5H37.5ZM18.75 37.5C19.5788 37.5 20.3737 37.1708 20.9597 36.5847C21.5458 35.9987 21.875 35.2038 21.875 34.375V26.7437C21.875 25.9149 21.5458 25.1201 20.9597 24.534C20.3737 23.948 19.5788 23.6188 18.75 23.6188H14.4125C14.4125 22.5208 14.4771 21.4229 14.6063 20.325C14.8021 19.1625 15.125 18.1292 15.575 17.225C16.0271 16.3208 16.6094 15.6094 17.3219 15.0906C18.0302 14.5094 18.9344 14.2188 20.0344 14.2188V9.375C18.2261 9.375 16.6427 9.7625 15.2844 10.5375C13.9355 11.3027 12.7765 12.3624 11.8938 13.6375C11.0051 15.0411 10.3507 16.58 9.95627 18.1938C9.55747 19.9742 9.36247 21.7942 9.37502 23.6188V34.375C9.37502 35.2038 9.70426 35.9987 10.2903 36.5847C10.8764 37.1708 11.6712 37.5 12.5 37.5H18.75Z" fill="#3483FB"/>
</svg>
