<svg width="41" height="41" viewBox="0 0 41 41" fill="none" xmlns="http://www.w3.org/2000/svg">
<path d="M19.9909 34.0678C20.2141 34.0678 20.4431 34.0177 20.6777 33.9175C20.9123 33.8173 21.1019 33.6948 21.2465 33.5502L34.5647 20.2303C34.9941 19.801 35.3255 19.3625 35.559 18.9149C35.7913 18.465 35.9075 17.9719 35.9075 17.4355C35.9075 16.8922 35.7913 16.3649 35.559 15.8536C35.3255 15.3411 34.9941 14.8741 34.5647 14.4527L28.1585 8.04648C27.7359 7.61712 27.3015 7.30222 26.855 7.10177C26.4097 6.90133 25.9154 6.80111 25.3722 6.80111C24.8358 6.80111 24.3375 6.90133 23.8774 7.10177C23.4173 7.30222 22.9839 7.61655 22.5773 8.04477L21.0877 9.53444L24.2481 12.7034C24.5875 13.0371 24.8409 13.4163 25.0083 13.8411C25.1746 14.266 25.2577 14.697 25.2577 15.1344C25.2577 16.0238 24.9667 16.7596 24.3848 17.3415C23.8028 17.9235 23.0676 18.2139 22.1793 18.2128C21.7408 18.2128 21.3132 18.1461 20.8963 18.0129C20.4795 17.8796 20.1042 17.6462 19.7705 17.3125L17.2576 14.8115C17.0606 14.6145 16.8089 14.5159 16.5025 14.5159C16.195 14.5159 15.9427 14.6145 15.7457 14.8115L9.12592 21.4313C8.95395 21.6044 8.82469 21.8008 8.73813 22.0206C8.65157 22.2405 8.6083 22.4625 8.6083 22.6869C8.6083 23.0901 8.73756 23.4221 8.99609 23.6829C9.25348 23.9448 9.58376 24.0758 9.98692 24.0758C10.2101 24.0758 10.4391 24.0257 10.6737 23.9254C10.9083 23.8241 11.0979 23.7011 11.2425 23.5564L16.0515 18.7475C16.211 18.588 16.4057 18.5009 16.6358 18.4861C16.8658 18.4713 17.0742 18.5584 17.261 18.7475C17.4432 18.9297 17.5343 19.1313 17.5343 19.3522C17.5343 19.5732 17.4432 19.7748 17.261 19.957L12.4606 24.7659C12.2875 24.9391 12.1576 25.1355 12.0711 25.3553C11.9857 25.5763 11.943 25.7983 11.943 26.0216C11.943 26.4031 12.0774 26.7282 12.3461 26.997C12.6149 27.2658 12.9401 27.4008 13.3216 27.4019C13.5448 27.4019 13.7737 27.3512 14.0083 27.2499C14.243 27.1485 14.4326 27.0261 14.5772 26.8826L19.7808 21.6892C19.9402 21.5286 20.1344 21.441 20.3633 21.4261C20.5923 21.4113 20.8007 21.4985 20.9886 21.6875C21.1708 21.8697 21.2619 22.0713 21.2619 22.2923C21.2619 22.5132 21.1708 22.7148 20.9886 22.897L15.7953 28.1006C15.6449 28.2452 15.5208 28.4349 15.4228 28.6695C15.3249 28.9041 15.2759 29.133 15.2759 29.3562C15.2759 29.7366 15.4109 30.0612 15.6808 30.33C15.9507 30.601 16.2759 30.7366 16.6563 30.7366C16.8795 30.7366 17.1016 30.6933 17.3225 30.6067C17.5435 30.5202 17.7393 30.3903 17.9102 30.2172L23.1155 25.0239C23.2749 24.8633 23.4691 24.7756 23.698 24.7608C23.9269 24.7472 24.1359 24.8343 24.325 25.0222C24.5061 25.2044 24.5966 25.406 24.5966 25.6269C24.5966 25.8479 24.5055 26.0495 24.3233 26.2317L19.1214 31.4336C18.9494 31.6067 18.8201 31.8145 18.7336 32.0571C18.647 32.2997 18.6038 32.5212 18.6038 32.7216C18.6038 33.1248 18.7455 33.45 19.0291 33.6971C19.3127 33.9442 19.6339 34.0678 19.9926 34.0678M19.9824 35.7761C19.1043 35.7761 18.3526 35.455 17.7274 34.8126C17.1021 34.1703 16.8277 33.3765 16.904 32.4312C15.9359 32.4426 15.1301 32.1539 14.4867 31.5651C13.8432 30.9763 13.5374 30.154 13.5693 29.0983C12.5147 29.1097 11.6833 28.8079 11.0751 28.1929C10.467 27.5779 10.1902 26.7681 10.2449 25.7636C9.29505 25.775 8.5001 25.5074 7.86005 24.9607C7.22113 24.4163 6.90167 23.6578 6.90167 22.6852C6.90167 22.2467 6.98652 21.8082 7.15621 21.3698C7.32591 20.9302 7.57646 20.5441 7.90788 20.2115L14.5618 13.5576C15.0857 13.0348 15.7315 12.7734 16.4991 12.7734C17.2667 12.7734 17.9125 13.0354 18.4363 13.5593L20.9151 16.0381C21.0598 16.1895 21.2386 16.3142 21.4515 16.4122C21.6645 16.5101 21.9043 16.5585 22.1708 16.5574C22.5363 16.5574 22.8592 16.4298 23.1394 16.1747C23.4195 15.9196 23.5602 15.5871 23.5613 15.1771C23.5613 14.9106 23.5124 14.6714 23.4144 14.4596C23.3165 14.2466 23.1923 14.0678 23.042 13.9231L17.1653 8.04648C16.7417 7.61712 16.3015 7.30222 15.8448 7.10177C15.3881 6.90133 14.8881 6.80111 14.3449 6.80111C13.8085 6.80111 13.321 6.90133 12.8825 7.10177C12.4452 7.30222 12.0119 7.61712 11.5825 8.04648L6.38063 13.2569C5.78385 13.8525 5.40005 14.5797 5.22921 15.4384C5.05838 16.2972 5.13639 17.1172 5.46326 17.8984C5.52703 18.1194 5.49856 18.3329 5.37784 18.5391C5.25712 18.7452 5.08628 18.8762 4.86534 18.932C4.64439 18.9878 4.42516 18.9582 4.20763 18.8431C3.9901 18.7281 3.85344 18.559 3.79763 18.3358C3.42977 17.2311 3.34948 16.1155 3.55676 14.9891C3.76403 13.8628 4.29931 12.868 5.16259 12.0047L10.3286 6.83698C10.9242 6.24704 11.5546 5.80857 12.2197 5.52157C12.8848 5.2357 13.604 5.09277 14.3773 5.09277C15.1506 5.09277 15.8636 5.23627 16.5162 5.52327C17.1699 5.80913 17.7917 6.24704 18.3817 6.83698L19.8679 8.32494L21.3576 6.83698C21.9532 6.24704 22.5779 5.80857 23.2316 5.52157C23.8854 5.2357 24.5989 5.09277 25.3722 5.09277C26.1455 5.09277 26.8647 5.23627 27.5298 5.52327C28.1938 5.80913 28.8202 6.24704 29.409 6.83698L35.7742 13.2005C36.363 13.7893 36.8174 14.4505 37.1375 15.1839C37.4575 15.9173 37.6169 16.6707 37.6158 17.444C37.6158 18.2185 37.4564 18.932 37.1375 19.5846C36.8186 20.2371 36.3642 20.859 35.7742 21.4501L22.4543 34.758C22.1001 35.1133 21.7141 35.3718 21.2961 35.5336C20.8793 35.6953 20.4425 35.7761 19.9824 35.7761Z" fill="#003B95"/>
</svg>
