<svg width="44" height="44" viewBox="0 0 44 44" fill="none" xmlns="http://www.w3.org/2000/svg">
<path d="M22.9272 38.005C22.6293 38.219 22.2718 38.334 21.905 38.334C21.5382 38.334 21.1807 38.219 20.8828 38.005C12.0678 31.7219 2.71258 18.798 12.1701 9.45914C14.7664 6.9051 18.263 5.47448 21.905 5.47608C25.5558 5.47608 29.0588 6.90903 31.64 9.45731C41.0974 18.7961 31.7422 31.7183 22.9272 38.005Z" stroke="white" stroke-width="2.5" stroke-linecap="round" stroke-linejoin="round"/>
<path d="M21.905 21.9047C22.8732 21.9047 23.8018 21.5201 24.4865 20.8354C25.1712 20.1507 25.5558 19.2221 25.5558 18.2539C25.5558 17.2856 25.1712 16.357 24.4865 15.6723C23.8018 14.9877 22.8732 14.603 21.905 14.603C20.9367 14.603 20.0081 14.9877 19.3235 15.6723C18.6388 16.357 18.2542 17.2856 18.2542 18.2539C18.2542 19.2221 18.6388 20.1507 19.3235 20.8354C20.0081 21.5201 20.9367 21.9047 21.905 21.9047Z" stroke="white" stroke-width="2.5" stroke-linecap="round" stroke-linejoin="round"/>
</svg>
