<svg width="44" height="44" viewBox="0 0 44 44" fill="none" xmlns="http://www.w3.org/2000/svg">
<path d="M13.6795 8.65625H9.36362C8.4479 8.65625 7.56968 9.02002 6.92217 9.66753C6.27466 10.315 5.91089 11.1933 5.91089 12.109V36.2781C5.91089 37.1938 6.27466 38.072 6.92217 38.7195C7.56968 39.367 8.4479 39.7308 9.36362 39.7308H19.7218M25.7641 8.65625H30.08C30.9957 8.65625 31.8739 9.02002 32.5214 9.66753C33.1689 10.315 33.5327 11.1933 33.5327 12.109V27.6462" stroke="white" stroke-width="2.5" stroke-linecap="round"/>
<path d="M12.8163 12.7994V9.51932C12.8163 9.29039 12.9073 9.07084 13.0692 8.90896C13.231 8.74708 13.4506 8.65614 13.6795 8.65614C14.156 8.65614 14.5496 8.26943 14.6325 7.79986C14.888 6.329 15.8789 3.47705 19.7218 3.47705C23.5647 3.47705 24.5556 6.329 24.8111 7.79986C24.894 8.26943 25.2876 8.65614 25.7641 8.65614C25.993 8.65614 26.2126 8.74708 26.3744 8.90896C26.5363 9.07084 26.6273 9.29039 26.6273 9.51932V12.7994C26.6273 13.0741 26.5181 13.3376 26.3239 13.5318C26.1296 13.7261 25.8661 13.8352 25.5914 13.8352H13.8522C13.5774 13.8352 13.314 13.7261 13.1197 13.5318C12.9255 13.3376 12.8163 13.0741 12.8163 12.7994Z" stroke="white" stroke-width="2.5" stroke-linecap="round"/>
<path d="M25.7641 37.141L29.2168 40.5937L37.8486 31.9619" stroke="white" stroke-width="2.5" stroke-linecap="round" stroke-linejoin="round"/>
</svg>
