<svg width="44" height="44" viewBox="0 0 44 44" fill="none" xmlns="http://www.w3.org/2000/svg">
<path d="M8.36039 15.7112L3.65082 15.432C7.02601 6.76123 16.7172 1.8253 26.1637 4.27866C36.2272 6.89448 42.2054 16.9069 39.5148 26.64C37.2896 34.6919 29.8328 40.0331 21.6257 40.1591" stroke="white" stroke-width="2.5" stroke-linecap="round" stroke-linejoin="round"/>
<path d="M21.905 40.1592C11.8652 40.1592 3.65082 31.0321 3.65082 20.0796" stroke="white" stroke-width="2.5" stroke-linecap="round" stroke-linejoin="round" stroke-dasharray="0.5 3"/>
<path d="M24.833 17.7465C24.1904 17.0711 22.6187 15.4885 20.1325 16.6147C17.6481 17.7374 17.2538 21.3535 21.0124 21.7387C22.71 21.9121 23.818 21.5379 24.833 22.5966C25.8479 23.659 26.0359 26.6089 23.4438 27.4048C20.8517 28.2007 19.1705 26.8864 18.7196 26.4756M21.7371 14.6396V16.0817M21.7371 27.6494V29.243" stroke="white" stroke-width="2.5" stroke-linecap="round" stroke-linejoin="round"/>
</svg>
