<svg width="219" height="357" viewBox="0 0 219 357" fill="none" xmlns="http://www.w3.org/2000/svg">
<g clip-path="url(#clip0_16_218)">
<path d="M147.474 357C147.176 357 146.9 356.806 146.81 356.504C143.606 345.697 144.129 334.23 144.632 323.14C144.9 317.278 145.175 311.218 144.897 305.327C144.848 304.294 144.783 303.257 144.717 302.219C144.44 297.826 144.153 293.282 145.166 288.904C146.15 284.654 148.314 280.771 150.446 277.161C154.725 269.913 159.417 262.796 164.387 256.004C164.868 255.347 165.354 254.689 165.841 254.029C170.329 247.952 174.969 241.667 176.875 234.399C177.696 231.267 177.999 227.952 178.292 224.748C178.467 222.84 178.646 220.867 178.935 218.935C179.622 214.321 180.946 209.766 182.229 205.36C183.942 199.465 185.715 193.37 185.917 187.196C186.052 183.028 185.468 178.79 184.904 174.693C184.667 172.968 184.425 171.206 184.232 169.436C183.87 166.33 183.703 163.85 183.905 161.68C184.168 155.851 185.808 149.276 190.988 144.964C191.283 144.718 191.61 144.54 191.95 144.431C191.4 142.727 189.948 141.339 188.049 140.773C184.453 139.699 181.057 141.177 178.063 143.186L160.749 178.723C160.542 180.09 160.489 181.473 160.731 182.825C161.109 184.934 162.44 186.907 164.121 187.851C164.665 188.157 164.915 188.783 164.73 189.375C164.548 189.96 164.006 190.313 163.395 190.257C161.6 190.086 159.955 189.307 158.763 188.066L158.691 187.99C158.484 187.774 158.203 187.477 158.034 187.477C158.032 187.477 158.03 187.477 158.029 187.477C157.949 187.48 157.792 187.557 157.503 187.912C155.169 190.787 154.493 194.466 153.776 198.361C153.118 201.938 152.438 205.636 150.367 208.734C149.663 209.787 148.352 210.249 147.248 209.833C146.653 209.61 146.217 209.185 145.985 208.604C145.429 207.204 146.232 205.357 146.491 204.824L159.41 178.307C159.701 176.525 160.225 174.797 160.715 173.183C163.77 163.121 167.232 151.717 175.202 143.555C175.224 143.531 175.25 143.508 175.275 143.489C175.828 143.067 176.398 142.647 176.981 142.244L186.73 122.238C187.013 121.672 214.783 66.2974 214.892 66.076C216.791 62.2879 218.682 56.5889 216.902 50.9316C214.608 43.6425 207.613 40.4272 200.851 37.3178C199.73 36.8028 198.624 36.2942 197.555 35.7743L156.748 15.908C150.692 12.8772 144.499 9.88169 138.508 6.98726L135.483 5.524C134.872 5.22878 134.268 4.92393 133.664 4.62069C130.397 2.97934 127.312 1.42783 123.697 1.38612C123.644 1.38612 123.591 1.38451 123.538 1.38451C117.72 1.38451 113.554 5.08919 111.075 8.21466C109.037 10.7818 107.72 13.5944 106.325 16.5706C105.668 17.9745 104.989 19.425 104.229 20.8385C101.916 25.1464 99.6783 29.5988 97.5145 33.9051C96.3235 36.2749 95.1326 38.6447 93.9241 41.0016L91.9221 44.9149C89.2934 50.0571 86.575 55.3743 83.8196 60.5615L83.5856 61.0027C82.797 62.4836 81.1381 63.3115 79.5448 63.0115C78.2257 62.7644 76.9386 62.105 75.6932 61.468C75.1883 61.2097 74.6866 60.953 74.1929 60.7299C72.3224 59.886 70.2146 59.602 68.1405 59.8186C66.0103 60.7636 63.9266 61.8386 61.931 63.0243C60.9757 63.5923 59.9948 64.2196 59.4162 65.1085C58.6644 66.2621 58.6275 67.7927 58.6788 68.9977C58.9 74.1576 60.8956 79.1378 64.2969 83.0222C64.6094 83.3784 64.9364 83.7314 65.2634 84.0859C66.754 85.6968 68.296 87.3638 68.7576 89.5924C69.2609 92.0312 68.3008 94.433 67.3599 96.4948C66.2171 98.9993 64.9476 101.475 63.574 103.875C62.7693 108.437 61.1504 112.74 59.1373 116.884C58.2413 121.813 55.6735 126.302 51.9821 129.502C51.1614 130.849 50.3344 132.208 49.5201 133.582C49.4287 134.256 49.2204 134.886 49.0441 135.327C45.4857 144.274 41.2349 152.824 36.4087 160.737C31.9368 168.073 28.2566 175.508 25.4644 182.848C24.7271 186.805 22.3485 190.14 20.0436 193.372C18.2387 195.902 16.373 198.519 15.3408 201.386C13.7796 205.719 14.4031 210.899 17.0077 215.239C19.5659 219.502 24.0203 221.668 28.3271 223.763C28.9202 224.05 29.5116 224.339 30.0983 224.631C28.574 221.892 26.5047 219.373 23.9385 217.161C22.5969 216.004 21.5022 214.714 20.6847 213.328C17.7066 208.275 19.3944 203.16 21.4397 198.825C22.6915 196.168 24.0972 193.545 25.4564 191.007C26.5512 188.961 27.6844 186.846 28.7246 184.735L106.423 27.1552C107.691 24.5833 108.9 21.9247 110.07 19.356C110.913 17.5012 111.785 15.5839 112.676 13.7083C114.226 10.4416 116.334 8.10396 118.937 6.75782C123.93 4.17786 129.814 7.23755 132.976 8.87891C136.834 10.8829 140.824 12.805 144.683 14.6646C146.038 15.316 147.392 15.969 148.743 16.6252L201.514 42.2756C202.005 42.513 202.502 42.7344 202.999 42.9558C203.46 43.1612 203.923 43.3682 204.38 43.5864C217.086 49.6721 212.978 59.0196 209.977 65.8433L209.557 66.8044C207.408 71.7477 204.807 76.5851 202.292 81.2637C200.586 84.4341 198.823 87.7136 197.223 90.9835C194.087 97.4013 190.927 103.904 187.808 110.328L160.225 167.068C155.398 177.433 151.237 188.244 147.86 199.189C142.098 217.873 133.962 236.064 124.335 251.796C119.733 259.316 112.564 263.512 105.178 263.043C102.972 262.9 100.765 262.273 98.6188 261.177L35.181 228.78C34.4581 228.411 33.7352 228.044 33.0123 227.675C33.5012 229.013 33.8762 230.389 34.1327 231.793C34.6039 234.376 35.4406 236.948 36.1859 239.156C38.1591 244.995 40.1995 251.034 42.8073 256.725C45.069 261.66 47.9397 268.216 50.0779 275.154C51.1839 278.743 52.8396 282.313 54.4409 285.764C56.2313 289.621 58.081 293.608 59.2366 297.744C60.6199 302.689 61.0142 307.856 61.3973 312.85L64.6463 355.29C64.6751 355.671 64.3898 356.004 64.0083 356.032C63.6237 356.063 63.2951 355.776 63.2662 355.394L60.0172 312.954C59.639 308.027 59.2495 302.931 57.9031 298.117C56.7762 294.089 54.9506 290.154 53.1842 286.348C51.5638 282.855 49.8872 279.243 48.7523 275.563C46.6382 268.701 43.7899 262.199 41.5459 257.303C38.9076 251.546 36.8559 245.473 34.8716 239.601C34.1102 237.346 33.2559 234.718 32.7687 232.042C32.4337 230.207 31.8839 228.424 31.1321 226.712C30.8677 226.577 30.6048 226.441 30.3403 226.306C29.478 225.862 28.5996 225.435 27.7196 225.008C23.23 222.824 18.5882 220.567 15.8168 215.951C12.999 211.258 12.3338 205.636 14.0344 200.914C14.9577 198.349 16.466 196.033 18.0288 193.81C16.264 194.703 14.3438 194.982 12.6159 194.517C10.6829 193.997 8.97102 192.534 7.90833 190.561C6.63887 190.737 5.27644 189.437 3.99255 188.006L3.9108 187.915C2.80483 186.686 1.90723 185.267 1.23884 183.701C-0.117178 180.517 -0.375238 177.029 0.509539 173.877C1.55941 170.139 4.21695 166.868 7.79933 164.901C11.5564 162.839 16.7705 162.038 19.9554 164.899C22.1561 166.876 23.2397 169.823 24.0828 172.432C24.764 174.538 25.3827 176.623 25.6039 178.745C28.2101 172.504 31.4351 166.219 35.221 160.01C35.2627 159.941 35.306 159.872 35.3476 159.803C34.9357 160.139 34.4965 160.458 34.0301 160.758C31.3742 162.467 28.2117 162.768 25.5702 161.562C23.1451 160.455 21.8211 158.529 21.1383 156.283C19.1844 152.423 18.0624 149.174 17.7098 146.35C16.7914 139.011 19.3383 129.505 27.1074 125.97C29.2327 125.004 32.1916 124.552 34.3443 126.044C34.1343 125.19 34.0141 124.298 33.9708 123.385C33.3008 116.77 33.1549 107.692 38.2392 101.881C42.3666 97.1638 49.6179 95.216 59.203 96.2493C60.3666 96.3744 61.5816 96.5654 62.5145 97.3692C63.4618 98.1859 63.792 99.3699 63.8737 100.44C64.6591 98.9496 65.4028 97.4366 66.0969 95.9123C66.9464 94.0512 67.8167 91.8948 67.3984 89.8668C67.0169 88.0152 65.6705 86.56 64.244 85.0197C63.9074 84.6555 63.5724 84.2945 63.2518 83.9271C59.6438 79.8069 57.5264 74.5234 57.2924 69.049C57.2315 67.6371 57.286 65.8273 58.2541 64.3432C58.3214 64.2389 58.3919 64.1394 58.4657 64.0415C58.1451 63.849 57.9207 63.5265 57.8534 63.1414C57.286 59.8924 58.9369 56.4573 61.7788 54.9748C64.3033 53.6575 67.5971 53.9832 69.9742 55.785C70.5416 56.215 70.8253 56.9001 70.7323 57.6157C70.6971 57.8869 70.6089 58.1452 70.4759 58.3746C71.9489 58.4901 73.4011 58.8463 74.7587 59.4592C75.2732 59.6903 75.7942 59.9582 76.3215 60.2278C77.4788 60.8198 78.6761 61.4327 79.7981 61.6429C80.8015 61.8306 81.8545 61.2963 82.3626 60.3449L82.5887 59.9197C85.3472 54.7277 88.0624 49.4154 90.6895 44.2779L92.6915 40.3647C93.8984 38.0093 95.0877 35.6444 96.2771 33.2778C98.4457 28.965 100.687 24.503 103.007 20.1791C103.748 18.7976 104.421 17.3648 105.07 15.9786C106.438 13.0617 107.853 10.0437 109.99 7.34986C113.798 2.54935 118.661 -0.0643053 123.712 -0.00333619C127.645 0.0415884 131.019 1.73749 134.282 3.37885C134.879 3.67888 135.478 3.97891 136.082 4.27253L139.107 5.73418C145.102 8.63182 151.3 11.6289 157.357 14.6613L198.16 34.5245C199.219 35.0411 200.317 35.5449 201.426 36.0551C208.136 39.1405 215.743 42.6366 218.221 50.5112C219.74 55.339 219.016 60.9337 216.128 66.6905C216.105 66.7354 192.665 113.478 187.967 122.848L179.19 140.863C181.991 139.321 185.099 138.44 188.443 139.438C190.923 140.179 192.788 142.076 193.377 144.384C193.466 144.408 193.553 144.439 193.639 144.476C194.93 145.012 195.314 146.279 194.782 148.245C192.812 155.502 189.571 161.921 186.14 168.716L185.649 169.687C185.832 171.304 186.053 172.916 186.271 174.498C186.843 178.654 187.435 182.951 187.295 187.236C187.089 193.585 185.292 199.765 183.554 205.742C182.286 210.103 180.974 214.613 180.3 219.134C180.018 221.027 179.839 222.98 179.667 224.87C179.369 228.13 179.061 231.503 178.21 234.745C176.237 242.27 171.517 248.664 166.95 254.846C166.465 255.504 165.981 256.16 165.5 256.816C160.555 263.571 155.891 270.65 151.633 277.859C149.556 281.377 147.448 285.151 146.511 289.209C145.544 293.391 145.823 297.831 146.094 302.124C146.16 303.169 146.225 304.213 146.275 305.255C146.555 311.209 146.278 317.303 146.011 323.196C145.51 334.17 144.994 345.518 148.133 356.103C148.242 356.47 148.032 356.855 147.666 356.965C147.605 356.99 147.54 357 147.474 357ZM32.1996 225.703C33.4034 226.319 34.6071 226.933 35.8125 227.546L99.2504 259.943C101.227 260.953 103.251 261.53 105.269 261.662C112.144 262.116 118.829 258.15 123.159 251.074C132.726 235.44 140.812 217.358 146.541 198.783C149.936 187.777 154.119 176.907 158.978 166.475L186.566 109.725C189.685 103.299 192.844 96.7964 195.981 90.377C197.592 87.0831 199.362 83.7907 201.073 80.6091C203.576 75.9562 206.164 71.1444 208.29 66.2541L208.713 65.2882C211.792 58.2848 215.281 50.3459 203.784 44.8395C203.338 44.6261 202.888 44.4255 202.438 44.225C201.926 43.9971 201.415 43.7693 200.912 43.5238L148.139 17.8735C146.79 17.2172 145.437 16.5658 144.084 15.9144C140.216 14.0517 136.215 12.1247 132.34 10.1111C128.272 7.99806 123.593 5.91548 119.575 7.99004C117.244 9.19338 115.346 11.3177 113.928 14.3036C113.043 16.1695 112.173 18.082 111.331 19.9304C110.158 22.5103 108.944 25.1785 107.667 27.7697L29.9685 185.348C28.917 187.48 27.779 189.604 26.6794 191.66C25.3282 194.182 23.9321 196.791 22.6947 199.414C20.8049 203.422 19.2309 208.126 21.8804 212.622C22.621 213.876 23.6179 215.051 24.8457 216.11C28.0707 218.895 30.5535 222.144 32.1996 225.703ZM153.214 194.19L147.738 205.432C147.238 206.461 147.051 207.529 147.275 208.092C147.363 208.312 147.506 208.45 147.738 208.537C148.251 208.728 148.872 208.487 149.221 207.964C151.133 205.103 151.787 201.548 152.42 198.111C152.658 196.807 152.9 195.486 153.214 194.19ZM9.15535 189.954C10.0401 191.573 11.425 192.765 12.9798 193.182C15.2815 193.8 18.056 192.759 20.0388 190.525C21.9061 188.42 22.9239 185.694 23.9064 183.058C23.9786 182.864 24.0523 182.67 24.126 182.474C24.1565 182.299 24.1837 182.123 24.2078 181.945C24.6101 178.906 23.7574 175.915 22.7716 172.863C21.9846 170.428 20.9812 167.683 19.037 165.935C16.357 163.529 11.8001 164.294 8.47093 166.122C5.21232 167.909 2.79842 170.876 1.84793 174.258C1.0481 177.106 1.28532 180.268 2.51792 183.162C3.1254 184.589 3.94126 185.877 4.94465 186.992L5.02799 187.084C6.00734 188.176 6.75908 188.849 7.2752 189.092C7.2752 189.091 7.2736 189.089 7.2736 189.088C6.57315 186.999 6.48018 184.539 6.98829 181.566C7.71759 177.305 9.41341 174.725 12.1751 173.678C14.5281 172.786 17.1264 173.754 18.0913 175.878C19.3191 178.587 17.3379 181.192 15.4738 183.159C14.6067 184.027 13.7636 184.934 12.9477 185.81C12.5294 186.261 12.1094 186.71 11.6879 187.156C11.518 187.334 11.3048 187.6 11.0628 187.9C10.3976 188.72 9.77245 189.46 9.15535 189.954ZM158.038 186.092C158.798 186.092 159.316 186.636 159.696 187.036L159.763 187.106C160.605 187.982 161.778 188.59 163.041 188.812C161.183 187.594 159.795 185.436 159.37 183.068C159.298 182.665 159.25 182.262 159.22 181.861L156.961 186.496C157.239 186.275 157.575 186.107 157.984 186.094C158.003 186.092 158.021 186.092 158.038 186.092ZM13.9767 174.731C13.544 174.731 13.1 174.81 12.6656 174.973C10.4024 175.83 8.99186 178.063 8.35392 181.799C7.88589 184.529 7.95962 186.761 8.57832 188.622C9.08162 188.143 9.62659 187.469 9.98563 187.026C10.2549 186.692 10.4953 186.399 10.6829 186.201C11.1028 185.758 11.518 185.311 11.9347 184.863C12.7586 183.977 13.6097 183.063 14.4816 182.19C16.0348 180.55 17.7178 178.404 16.8314 176.448C16.3394 175.368 15.2093 174.731 13.9767 174.731ZM175.535 145.216C168.712 152.604 165.386 162.63 162.587 171.79L175.535 145.216ZM185.29 161.741C185.224 163.19 185.247 164.594 185.322 165.899C185.346 166.303 185.373 166.706 185.406 167.111C188.619 160.74 191.613 154.658 193.452 147.884C193.678 147.048 193.684 146.547 193.579 146.238C193.478 148.946 191.662 150.907 189.898 152.809C189.379 153.369 188.842 153.949 188.374 154.526C186.467 156.878 185.556 158.987 185.29 161.741ZM22.5007 156.031C23.1002 157.884 24.2078 159.418 26.1504 160.304C28.3624 161.313 31.0295 161.047 33.288 159.595C37.5291 156.865 39.1913 152.484 40.9496 147.845C41.2862 146.958 41.6212 146.074 41.9755 145.203C43.6681 141.036 45.8704 137.031 48.1737 133.137C48.201 132.738 48.1545 132.401 48.0343 132.159C45.4424 133.368 42.6022 133.535 40.0745 132.593C38.8002 132.118 37.7567 131.457 36.9168 130.657C36.4216 130.285 35.9615 129.859 35.5512 129.388C35.3412 129.147 35.1441 128.893 34.9453 128.64C34.5751 128.167 34.2272 127.719 33.8073 127.372C32.1259 125.983 29.5437 126.391 27.686 127.234C20.5565 130.479 18.2323 139.33 19.0899 146.18C19.2902 147.773 19.755 149.523 20.5004 151.47C20.4892 150.412 20.5404 149.358 20.6158 148.347C20.7969 145.928 21.0165 143.757 21.8644 141.679C22.8742 139.2 24.6694 137.4 26.7868 136.742C29.3658 135.943 32.3471 136.973 33.8794 139.196C34.9646 140.768 35.2691 142.857 34.6696 144.646C34.3154 145.705 33.4354 146.526 32.3166 146.841C28.0723 148.035 24.4178 151.462 22.5007 156.031ZM192.192 145.824C192.081 145.877 191.974 145.946 191.875 146.029C189.006 148.416 187.305 151.584 186.346 154.924C186.635 154.505 186.951 154.083 187.297 153.655C187.794 153.04 188.347 152.445 188.881 151.868C190.618 149.994 192.266 148.214 192.192 145.824ZM28.566 137.862C28.1011 137.862 27.6379 137.928 27.1955 138.066C25.4997 138.592 23.985 140.139 23.1435 142.202C22.3725 144.092 22.1673 146.151 21.9942 148.452C21.8596 150.252 21.8051 152.105 22.0231 153.82C24.2382 149.706 27.8318 146.663 31.94 145.506C32.618 145.315 33.1469 144.829 33.3553 144.205C33.8105 142.843 33.5685 141.185 32.7382 139.982C31.8246 138.657 30.1816 137.862 28.566 137.862ZM37.9202 129.68C40.1322 131.255 43.1359 131.66 45.6268 130.593C46.3368 130.288 46.9716 130.195 47.5646 130.309C47.7954 130.354 48.0102 130.421 48.2074 130.512C48.2891 130.466 48.3693 130.419 48.4494 130.37C49.3181 129.843 50.1436 129.248 50.9146 128.593C53.3237 124.637 55.7713 120.616 57.8101 116.445C57.8582 116.167 57.8998 115.888 57.9367 115.607C58.0056 115.071 58.0553 114.532 58.1034 113.993C58.2124 112.799 58.323 111.564 58.658 110.36C59.1677 108.53 60.1503 106.908 61.1008 105.339L61.3957 104.851C61.6858 104.369 61.9711 103.883 62.2516 103.396C62.3029 103.097 62.3494 102.799 62.3927 102.497C62.686 100.459 62.4311 99.1261 61.6153 98.4233C60.9821 97.8778 60.0445 97.7366 59.0587 97.6307C52.6986 96.9456 44.1073 97.2842 39.2843 102.797C36.1891 106.335 35.1858 111.272 35.0415 116.043C35.6971 113.946 36.8175 111.208 39.0102 109.322C41.6341 107.065 46.0227 106.434 48.5328 109.345C49.9304 110.964 50.1372 113.292 49.0377 115.007C47.9173 116.754 46.1717 116.993 44.6314 117.205C44.0143 117.29 43.4325 117.369 42.9003 117.536C39.5439 118.58 37.2887 121.531 35.4422 124.266C35.6955 126.373 36.4536 128.287 37.9202 129.68ZM44.1057 108.769C42.6134 108.769 41.0618 109.387 39.9126 110.375C38.2953 111.766 37.1124 113.877 36.194 117.021C35.7243 118.623 35.4182 120.322 35.3573 121.977C37.1477 119.533 39.358 117.187 42.4916 116.212C43.1327 116.013 43.7995 115.921 44.4455 115.832C45.8688 115.636 47.0998 115.467 47.8756 114.258C48.6466 113.056 48.4863 111.407 47.4877 110.25C46.5901 109.213 45.3687 108.769 44.1057 108.769ZM61.2017 107.902C60.7016 108.815 60.2625 109.756 59.9916 110.733C59.8537 111.23 59.7576 111.735 59.6838 112.252C60.2576 110.824 60.769 109.375 61.2017 107.902ZM65.1416 55.5748C64.1847 55.5748 63.2438 55.7834 62.4231 56.2118C60.1855 57.3799 58.8183 60.1668 59.195 62.7483C61.455 60.2871 64.6078 58.7902 67.8664 58.4276C68.2383 58.2655 68.6133 58.1051 68.9868 57.951C69.1936 57.866 69.3362 57.6767 69.3651 57.4472C69.3779 57.3429 69.3843 57.0814 69.1423 56.8985C67.9946 56.0273 66.5505 55.5748 65.1416 55.5748Z" fill="white"/>
<path d="M67.28 95.6285C67.1982 95.6285 67.1149 95.614 67.0331 95.5836C66.6757 95.4472 66.4962 95.0477 66.6324 94.6899C67.1229 93.4015 81.7201 61.7473 82.3404 60.3996C82.5007 60.0514 82.9111 59.9006 83.2589 60.061C83.6067 60.2215 83.7574 60.6322 83.5971 60.9804C78.3429 72.3752 68.3042 94.1877 67.9259 95.1824C67.8218 95.4584 67.5589 95.6285 67.28 95.6285Z" fill="white"/>
</g>
<defs>
<clipPath id="clip0_16_218">
<rect width="219" height="357" fill="white"/>
</clipPath>
</defs>
</svg>
