<svg width="36" height="35" viewBox="0 0 36 35" fill="none" xmlns="http://www.w3.org/2000/svg">
<path d="M8.15625 4.375H21.0078C21.7625 4.375 22.375 4.9875 22.375 5.74219V15.3125C22.375 15.6026 22.4902 15.8808 22.6954 16.0859C22.9005 16.291 23.1787 16.4062 23.4688 16.4062H27.5703C28.325 16.4062 28.9375 17.0188 28.9375 17.7734V30.625H25.6562V26.7969C25.6562 26.3618 25.4834 25.9445 25.1757 25.6368C24.868 25.3291 24.4507 25.1562 24.0156 25.1562H11.9844C11.5493 25.1562 11.132 25.3291 10.8243 25.6368C10.5166 25.9445 10.3438 26.3618 10.3438 26.7969V30.625H7.0625V5.46875C7.0625 5.17867 7.17773 4.90047 7.38285 4.69535C7.58797 4.49023 7.86617 4.375 8.15625 4.375ZM23.4688 30.625H19.0938V27.3438H23.4688V30.625ZM16.9062 30.625H12.5312V27.3438H16.9062V30.625ZM30.0312 32.8125C30.3213 32.8125 30.5995 32.6973 30.8046 32.4921C31.0098 32.287 31.125 32.0088 31.125 31.7188V17.7734C31.125 17.3066 31.0331 16.8444 30.8544 16.4131C30.6758 15.9818 30.4139 15.59 30.0839 15.2599C29.7538 14.9298 29.3619 14.668 28.9306 14.4893C28.4994 14.3107 28.0371 14.2188 27.5703 14.2188H24.5625V5.74219C24.5625 5.27538 24.4706 4.81314 24.2919 4.38187C24.1133 3.95059 23.8514 3.55873 23.5214 3.22864C23.1913 2.89856 22.7994 2.63672 22.3681 2.45808C21.9369 2.27944 21.4746 2.1875 21.0078 2.1875H8.15625C7.28601 2.1875 6.45141 2.5332 5.83606 3.14856C5.2207 3.76391 4.875 4.59851 4.875 5.46875V31.7188C4.875 32.0088 4.99023 32.287 5.19535 32.4921C5.40047 32.6973 5.67867 32.8125 5.96875 32.8125H30.0312ZM11.9844 10.9375C12.4195 10.9375 12.8368 10.7646 13.1445 10.457C13.4521 10.1493 13.625 9.732 13.625 9.29688C13.625 8.86175 13.4521 8.44445 13.1445 8.13678C12.8368 7.8291 12.4195 7.65625 11.9844 7.65625C11.5493 7.65625 11.132 7.8291 10.8243 8.13678C10.5166 8.44445 10.3438 8.86175 10.3438 9.29688C10.3438 9.732 10.5166 10.1493 10.8243 10.457C11.132 10.7646 11.5493 10.9375 11.9844 10.9375ZM11.9844 16.4062C12.4195 16.4062 12.8368 16.2334 13.1445 15.9257C13.4521 15.618 13.625 15.2007 13.625 14.7656C13.625 14.3305 13.4521 13.9132 13.1445 13.6055C12.8368 13.2979 12.4195 13.125 11.9844 13.125C11.5493 13.125 11.132 13.2979 10.8243 13.6055C10.5166 13.9132 10.3438 14.3305 10.3438 14.7656C10.3438 15.2007 10.5166 15.618 10.8243 15.9257C11.132 16.2334 11.5493 16.4062 11.9844 16.4062ZM13.625 20.2344C13.625 20.6695 13.4521 21.0868 13.1445 21.3945C12.8368 21.7021 12.4195 21.875 11.9844 21.875C11.5493 21.875 11.132 21.7021 10.8243 21.3945C10.5166 21.0868 10.3438 20.6695 10.3438 20.2344C10.3438 19.7993 10.5166 19.382 10.8243 19.0743C11.132 18.7666 11.5493 18.5938 11.9844 18.5938C12.4195 18.5938 12.8368 18.7666 13.1445 19.0743C13.4521 19.382 13.625 19.7993 13.625 20.2344ZM17.4531 10.9375C17.8882 10.9375 18.3055 10.7646 18.6132 10.457C18.9209 10.1493 19.0938 9.732 19.0938 9.29688C19.0938 8.86175 18.9209 8.44445 18.6132 8.13678C18.3055 7.8291 17.8882 7.65625 17.4531 7.65625C17.018 7.65625 16.6007 7.8291 16.293 8.13678C15.9854 8.44445 15.8125 8.86175 15.8125 9.29688C15.8125 9.732 15.9854 10.1493 16.293 10.457C16.6007 10.7646 17.018 10.9375 17.4531 10.9375ZM19.0938 14.7656C19.0938 15.2007 18.9209 15.618 18.6132 15.9257C18.3055 16.2334 17.8882 16.4062 17.4531 16.4062C17.018 16.4062 16.6007 16.2334 16.293 15.9257C15.9854 15.618 15.8125 15.2007 15.8125 14.7656C15.8125 14.3305 15.9854 13.9132 16.293 13.6055C16.6007 13.2979 17.018 13.125 17.4531 13.125C17.8882 13.125 18.3055 13.2979 18.6132 13.6055C18.9209 13.9132 19.0938 14.3305 19.0938 14.7656ZM17.4531 21.875C17.8882 21.875 18.3055 21.7021 18.6132 21.3945C18.9209 21.0868 19.0938 20.6695 19.0938 20.2344C19.0938 19.7993 18.9209 19.382 18.6132 19.0743C18.3055 18.7666 17.8882 18.5938 17.4531 18.5938C17.018 18.5938 16.6007 18.7666 16.293 19.0743C15.9854 19.382 15.8125 19.7993 15.8125 20.2344C15.8125 20.6695 15.9854 21.0868 16.293 21.3945C16.6007 21.7021 17.018 21.875 17.4531 21.875ZM24.5625 20.2344C24.5625 20.6695 24.3896 21.0868 24.082 21.3945C23.7743 21.7021 23.357 21.875 22.9219 21.875C22.4868 21.875 22.0695 21.7021 21.7618 21.3945C21.4541 21.0868 21.2812 20.6695 21.2812 20.2344C21.2812 19.7993 21.4541 19.382 21.7618 19.0743C22.0695 18.7666 22.4868 18.5938 22.9219 18.5938C23.357 18.5938 23.7743 18.7666 24.082 19.0743C24.3896 19.382 24.5625 19.7993 24.5625 20.2344Z" fill="#80B3FF"/>
</svg>
