<svg width="36" height="35" viewBox="0 0 36 35" fill="none" xmlns="http://www.w3.org/2000/svg">
<g clip-path="url(#clip0_46_620)">
<path d="M34.3333 1.16678L35.4067 1.62644C35.499 1.41197 35.5249 1.1747 35.481 0.945356C35.437 0.716007 35.3252 0.505126 35.1601 0.34C34.995 0.174874 34.7841 0.0631023 34.5548 0.019146C34.3254 -0.0248103 34.0881 0.00107226 33.8737 0.0934447L34.3333 1.16678ZM1.66667 15.1668L1.207 14.0934C1.00914 14.178 0.838513 14.3156 0.713987 14.4911C0.589461 14.6665 0.515886 14.873 0.501397 15.0877C0.486908 15.3024 0.53207 15.5169 0.631888 15.7075C0.731707 15.8981 0.882293 16.0574 1.067 16.1678L1.66667 15.1668ZM20.3333 33.8334L19.3323 34.4331C19.4427 34.6178 19.602 34.7684 19.7926 34.8682C19.9832 34.968 20.1977 35.0132 20.4124 34.9987C20.6271 34.9842 20.8336 34.9106 21.009 34.7861C21.1845 34.6616 21.3221 34.491 21.4067 34.2931L20.3333 33.8334ZM33.8737 0.0934447L1.207 14.0934L2.12633 16.2401L34.793 2.24011L33.8737 0.0934447ZM1.067 16.1678L12.7337 23.1701L13.933 21.1681L2.26633 14.1681L1.067 16.1678ZM12.33 22.7664L19.33 34.4331L21.332 33.2338L14.332 21.5671L12.33 22.7664ZM21.4043 34.2931L35.4043 1.62644L33.2577 0.707111L19.2577 33.3738L21.4043 34.2931ZM33.5073 0.343111L12.5073 21.3431L14.1593 22.9928L35.1593 1.99278L33.5073 0.343111Z" fill="#80B3FF"/>
</g>
<defs>
<clipPath id="clip0_46_620">
<rect width="35" height="35" fill="white" transform="translate(0.5)"/>
</clipPath>
</defs>
</svg>
