<svg width="41" height="41" viewBox="0 0 41 41" fill="none" xmlns="http://www.w3.org/2000/svg">
<path d="M9.72567 9.72607H33.6125C34.246 9.72607 34.8536 9.97774 35.3015 10.4257C35.7495 10.8737 36.0012 11.4812 36.0012 12.1148V28.8355C36.0012 29.469 35.7495 30.0766 35.3015 30.5246C34.8536 30.9725 34.246 31.2242 33.6125 31.2242H31.2238M4.9483 12.1148V28.8355C4.9483 29.469 5.19997 30.0766 5.64793 30.5246C6.0959 30.9725 6.70347 31.2242 7.33698 31.2242H25.2521" stroke="#003B95" stroke-width="1.7" stroke-linecap="round" stroke-linejoin="round"/>
<path d="M17.0971 17.0971C17.5378 16.6408 18.065 16.2768 18.6478 16.0265C19.2307 15.7761 19.8576 15.6443 20.4919 15.6388C21.1263 15.6333 21.7553 15.7541 22.3425 15.9944C22.9296 16.2346 23.463 16.5893 23.9115 17.0379C24.3601 17.4864 24.7148 18.0198 24.955 18.6069C25.1953 19.1941 25.3161 19.8231 25.3106 20.4575C25.3051 21.0918 25.1733 21.7187 24.9229 22.3016C24.6726 22.8844 24.3086 23.4116 23.8523 23.8523M15.7499 21.1817C15.9053 22.2188 16.3976 23.1759 17.1509 23.9055C17.9042 24.635 18.8766 25.0965 19.9182 25.2186M36.0012 36.0011L4.9483 4.94824" stroke="#003B95" stroke-width="1.7" stroke-linecap="round" stroke-linejoin="round"/>
</svg>
