<svg width="58" height="58" viewBox="0 0 58 58" fill="none" xmlns="http://www.w3.org/2000/svg">
<path d="M25.5741 43C25.5741 43.2652 25.4707 43.5196 25.2866 43.7071C25.1025 43.8946 24.8529 44 24.5926 44H17.7222C17.4619 44 17.2123 43.8946 17.0282 43.7071C16.8441 43.5196 16.7407 43.2652 16.7407 43C16.7407 42.7348 16.8441 42.4804 17.0282 42.2929C17.2123 42.1054 17.4619 42 17.7222 42H24.5926C24.8529 42 25.1025 42.1054 25.2866 42.2929C25.4707 42.4804 25.5741 42.7348 25.5741 43ZM41.2778 42H34.4074C34.1471 42 33.8975 42.1054 33.7134 42.2929C33.5293 42.4804 33.4259 42.7348 33.4259 43C33.4259 43.2652 33.5293 43.5196 33.7134 43.7071C33.8975 43.8946 34.1471 44 34.4074 44H41.2778C41.5381 44 41.7877 43.8946 41.9718 43.7071C42.1559 43.5196 42.2593 43.2652 42.2593 43C42.2593 42.7348 42.1559 42.4804 41.9718 42.2929C41.7877 42.1054 41.5381 42 41.2778 42ZM56 53C56 53.2652 55.8966 53.5196 55.7125 53.7071C55.5285 53.8946 55.2788 54 55.0185 54H3.98148C3.72118 54 3.47153 53.8946 3.28747 53.7071C3.10341 53.5196 3 53.2652 3 53C3 52.7348 3.10341 52.4804 3.28747 52.2929C3.47153 52.1054 3.72118 52 3.98148 52H6.92593V21C6.92593 20.8143 6.97668 20.6322 7.07251 20.4743C7.16834 20.3163 7.30545 20.1886 7.46848 20.1056C7.63151 20.0225 7.81401 19.9874 7.99555 20.004C8.17709 20.0207 8.35048 20.0886 8.4963 20.2L22.6296 31V21C22.6296 20.8143 22.6804 20.6322 22.7762 20.4743C22.872 20.3163 23.0091 20.1886 23.1722 20.1056C23.3352 20.0225 23.5177 19.9874 23.6993 20.004C23.8808 20.0207 24.0542 20.0886 24.2 20.2L35.0306 28.4775L38.1027 6.575C38.206 5.86152 38.5569 5.20939 39.0917 4.73695C39.6265 4.26451 40.3098 4.00304 41.0177 4H45.4638C46.1716 4.00304 46.855 4.26451 47.3898 4.73695C47.9246 5.20939 48.2755 5.86152 48.3788 6.575L52.0594 32.8575C52.063 32.9049 52.063 32.9526 52.0594 33V52H55.0038C55.1339 51.998 55.2631 52.0224 55.3839 52.0718C55.5047 52.1211 55.6146 52.1945 55.7073 52.2875C55.8001 52.3806 55.8737 52.4915 55.9239 52.6138C55.9741 52.7361 56 52.8674 56 53ZM36.8219 29.845L39.6412 32H49.9614L46.4306 6.8575C46.3967 6.61768 46.2785 6.39854 46.098 6.24083C45.9175 6.08311 45.6869 5.99753 45.4491 6H41.0177C40.7799 5.99753 40.5493 6.08311 40.3688 6.24083C40.1883 6.39854 40.0701 6.61768 40.0362 6.8575L36.8219 29.845ZM8.88889 52H50.1111V34H39.3148C39.1025 34 38.8958 33.9298 38.7259 33.8L24.5926 23V33C24.5926 33.1857 24.5418 33.3678 24.446 33.5257C24.3502 33.6837 24.2131 33.8114 24.05 33.8944C23.887 33.9775 23.7045 34.0126 23.523 33.996C23.3414 33.9793 23.168 33.9114 23.0222 33.8L8.88889 23V52Z" fill="#003B95"/>
</svg>
