<svg width="58" height="58" viewBox="0 0 58 58" fill="none" xmlns="http://www.w3.org/2000/svg">
<path d="M28.233 49.4922C28.5593 49.4922 28.894 49.4187 29.237 49.2717C29.58 49.1248 29.8572 48.9452 30.0687 48.7331L49.5394 29.1994C50.1671 28.5697 50.6516 27.9267 50.993 27.2703C51.3326 26.6106 51.5025 25.8874 51.5025 25.1007C51.5025 24.304 51.3326 23.5307 50.993 22.7808C50.6516 22.0292 50.1671 21.3444 49.5394 20.7265L40.1737 11.3316C39.556 10.702 38.9208 10.2402 38.2681 9.94622C37.617 9.65227 36.8944 9.50529 36.1002 9.50529C35.316 9.50529 34.5875 9.65227 33.9149 9.94622C33.2422 10.2402 32.6087 10.7011 32.0143 11.3291L29.8364 13.5138L34.4568 18.1611C34.953 18.6504 35.3235 19.2066 35.5682 19.8296C35.8113 20.4526 35.9329 21.0847 35.9329 21.7261C35.9329 23.0305 35.5075 24.1095 34.6566 24.9629C33.8058 25.8164 32.731 26.2423 31.4323 26.2406C30.7913 26.2406 30.1661 26.1429 29.5567 25.9475C28.9473 25.7521 28.3987 25.4097 27.9108 24.9203L23.133 20.1452L12.3487 30.9606C12.0973 31.2144 11.9083 31.5026 11.7818 31.8249C11.6552 32.1473 11.592 32.4729 11.592 32.802C11.592 33.3932 11.7809 33.8801 12.1589 34.2626C12.5352 34.6467 13.0181 34.8388 13.6075 34.8388C13.9338 34.8388 14.2685 34.7653 14.6115 34.6183C14.9545 34.4697 15.2317 34.2893 15.4432 34.0772L23.3578 26.1379L25.1261 27.9116L17.2239 35.8534C16.9708 36.1056 16.781 36.3929 16.6545 36.7152C16.5296 37.0392 16.4671 37.3649 16.4671 37.6923C16.4671 38.2518 16.6636 38.7286 17.0566 39.1228C17.4495 39.517 17.9249 39.7149 18.4826 39.7166C18.809 39.7166 19.1437 39.6422 19.4867 39.4936C19.8296 39.3449 20.1069 39.1654 20.3183 38.955L28.8099 30.452L30.5782 32.2232L22.0991 40.7412C21.8776 40.9533 21.6961 41.2314 21.5546 41.5755C21.4114 41.9195 21.3398 42.2553 21.3398 42.5826C21.3398 43.1405 21.5371 43.6165 21.9317 44.0106C22.3247 44.4081 22.8 44.6069 23.3578 44.6069C23.6842 44.6069 24.0088 44.5434 24.3319 44.4165C24.6549 44.2896 24.9413 44.0991 25.191 43.8453L33.6826 35.3398L35.4509 37.1136L26.9593 45.6315C26.7078 45.8854 26.5189 46.1902 26.3923 46.546C26.2658 46.9017 26.2025 47.2266 26.2025 47.5205C26.2025 48.1118 26.4098 48.5886 26.8244 48.9511C27.239 49.3135 27.7085 49.4947 28.233 49.4947M28.218 52C26.9343 52 25.8354 51.529 24.9213 50.587C24.0072 49.6433 23.6059 48.4792 23.7175 47.0946C22.3022 47.1113 21.1242 46.6879 20.1835 45.8245C19.2427 44.9593 18.7957 43.7534 18.8423 42.2068C17.3005 42.2235 16.085 41.7809 15.1959 40.879C14.3068 39.9771 13.9022 38.7896 13.9821 37.3165C12.5935 37.3332 11.4313 36.9407 10.4955 36.139C9.56147 35.3407 9.09444 34.2283 9.09444 32.802C9.09444 32.1589 9.21848 31.5159 9.46657 30.8729C9.71466 30.2282 10.081 29.662 10.5655 29.1743L23.133 16.5827L29.5817 23.0514C29.7931 23.2735 30.0545 23.4564 30.3659 23.6C30.6772 23.7437 31.0277 23.8147 31.4173 23.813C31.9518 23.813 32.4238 23.6259 32.8334 23.2518C33.243 22.8777 33.4487 22.39 33.4503 21.7887C33.4503 21.3979 33.3787 21.0472 33.2355 20.7365C33.0924 20.4242 32.9109 20.162 32.6911 19.9498L24.0996 11.3316C23.4802 10.702 22.8367 10.2402 22.169 9.94622C21.5013 9.65227 20.7704 9.50529 19.9762 9.50529C19.1919 9.50529 18.4793 9.65227 17.8383 9.94622C17.1989 10.2402 16.5654 10.702 15.9377 11.3316L8.33519 18.9728C7.79905 19.5072 7.36615 20.1461 7.03647 20.8893C6.7068 21.6309 6.53197 22.3967 6.51199 23.1867C6.49534 23.7529 6.54363 24.2965 6.65685 24.8176C6.77007 25.3387 6.95322 25.8297 7.2063 26.2907L5.31318 28.1897C4.89359 27.5183 4.56558 26.745 4.32915 25.8698C4.09272 24.9947 3.98366 24.1011 4.00198 23.1892C4.02196 22.0501 4.24923 20.9603 4.6838 19.9198C5.11837 18.8792 5.74109 17.9515 6.55195 17.1364L14.107 9.5579C14.9778 8.69274 15.8994 8.04972 16.8717 7.62883C17.8441 7.20961 18.8956 7 20.0261 7C21.1567 7 22.199 7.21044 23.153 7.63133C24.1087 8.05055 25.0178 8.69274 25.8803 9.5579L28.0532 11.74L30.231 9.5579C31.1018 8.69274 32.0151 8.04972 32.9708 7.62883C33.9265 7.20961 34.9697 7 36.1002 7C37.2308 7 38.2822 7.21044 39.2546 7.63133C40.2253 8.05055 41.1411 8.69274 42.0019 9.5579L51.3077 18.8901C52.1685 19.7536 52.8328 20.7231 53.3007 21.7987C53.7686 22.8743 54.0017 23.9792 54 25.1132C54 26.249 53.7669 27.2953 53.3007 28.2524C52.8345 29.2094 52.1701 30.1213 51.3077 30.9881L31.8344 50.5043C31.3166 51.0254 30.7522 51.4046 30.1411 51.6417C29.5317 51.8789 28.8907 51.9975 28.218 51.9975" fill="#003B95"/>
</svg>
